<?xml version="1.0" standalone="no"?>
<!DOCTYPE svg PUBLIC "-//W3C//DTD SVG 20010904//EN"
 "http://www.w3.org/TR/2001/REC-SVG-20010904/DTD/svg10.dtd">
<svg version="1.0" xmlns="http://www.w3.org/2000/svg"
 width="507.000000pt" height="507.000000pt" viewBox="0 0 507.000000 507.000000"
 preserveAspectRatio="xMidYMid meet">
<metadata>
Created by potrace 1.14, written by Peter Selinger 2001-2017
</metadata>
<g transform="translate(0.000000,507.000000) scale(0.100000,-0.100000)"
fill="#000000" stroke="none">
<path d="M2270 5015 c-432 -48 -832 -202 -1204 -465 -175 -123 -404 -353 -536
-538 -52 -72 -107 -152 -122 -176 -64 -100 -218 -428 -218 -462 0 -7 -7 -25
-15 -40 -8 -16 -15 -42 -15 -57 0 -15 -6 -38 -14 -50 -19 -29 -60 -196 -82
-332 -23 -146 -28 -480 -9 -630 35 -278 99 -496 217 -745 47 -99 47 -98 57
-82 5 8 8 0 8 -20 0 -17 5 -34 11 -36 7 -2 12 -8 12 -13 0 -6 11 -27 25 -47
14 -20 25 -43 25 -50 0 -11 36 -69 51 -82 3 -3 22 -29 42 -58 42 -62 93 -129
119 -157 38 -42 78 -90 78 -96 0 -4 14 -12 30 -19 17 -7 30 -16 30 -21 0 -18
107 -123 210 -206 113 -91 187 -142 259 -181 26 -13 48 -28 51 -32 8 -12 289
-150 305 -150 4 0 21 -6 38 -14 31 -14 66 -26 232 -79 82 -27 158 -44 255 -57
30 -5 84 -13 120 -18 121 -19 262 -24 272 -10 8 10 11 10 15 1 7 -18 103 -18
103 0 0 9 3 9 9 -1 7 -11 28 -12 117 -3 60 5 120 12 134 15 14 2 54 7 90 11
64 6 98 18 113 39 6 8 10 7 14 -1 7 -19 21 -16 47 12 13 13 32 26 42 28 10 1
25 6 32 11 8 5 35 14 60 21 94 27 136 44 302 124 157 76 242 123 275 153 17
16 33 28 38 28 12 0 126 80 140 98 6 10 38 35 71 57 32 21 94 74 137 116 44
43 82 79 87 81 4 2 30 30 57 62 28 33 62 73 77 89 14 16 48 61 74 101 27 39
51 73 54 76 14 11 98 165 174 315 78 155 157 374 175 482 5 32 15 72 21 88 30
77 50 548 30 699 -34 264 -73 431 -135 576 -13 30 -33 82 -46 115 -26 69 -123
259 -150 294 -11 13 -19 27 -19 32 0 7 -43 72 -114 174 -48 68 -228 274 -263
301 -21 16 -71 61 -110 101 -40 40 -77 73 -82 73 -6 0 -14 6 -18 13 -11 19
-184 136 -268 181 -38 21 -78 45 -87 54 -10 8 -18 11 -18 7 0 -4 -8 -1 -18 8
-10 9 -43 28 -75 42 -50 23 -92 54 -53 39 35 -14 13 7 -26 24 -71 31 -81 34
-90 20 -5 -9 -8 -7 -8 7 0 15 -2 17 -9 6 -5 -8 -16 -11 -30 -6 -28 9 -27 24 2
19 16 -3 14 -1 -8 10 -36 18 -65 20 -65 5 0 -7 -11 0 -26 16 -19 21 -32 26
-54 23 -16 -2 -27 -1 -25 2 6 9 -112 43 -129 37 -7 -3 -17 -2 -22 3 -14 13
-174 38 -318 50 -162 13 -309 11 -456 -5z m150 -20 c0 -8 -7 -15 -15 -15 -8 0
-15 7 -15 15 0 8 7 15 15 15 8 0 15 -7 15 -15z m815 -93 c-3 -3 -11 0 -18 7
-9 10 -8 11 6 5 10 -3 15 -9 12 -12z m-585 -12 c0 -5 -5 -10 -11 -10 -5 0 -7
5 -4 10 3 6 8 10 11 10 2 0 4 -4 4 -10z m-824 -25 c-11 -8 -25 -15 -32 -15 -7
0 -20 -3 -30 -7 -12 -4 -15 -3 -10 5 4 6 21 16 39 21 46 13 55 12 33 -4z
m-116 -40 c-7 -9 -15 -13 -18 -11 -2 3 -17 -1 -33 -9 -46 -24 -57 -17 -14 9
48 29 85 35 65 11z m849 -57 c-1 -130 11 -1839 16 -2318 2 -256 7 -730 10
-1055 3 -324 8 -715 12 -867 6 -273 7 -278 27 -278 18 0 17 -2 -7 -15 -38 -19
-87 -4 -66 22 10 12 14 59 16 182 1 99 -2 158 -7 146 -7 -17 -9 -17 -9 -2 -1
17 -16 24 -23 10 -10 -23 -149 -72 -205 -73 -45 0 -21 16 62 43 46 16 87 32
90 38 4 5 15 9 25 9 25 0 32 13 24 45 -5 19 -12 25 -28 23 -11 -2 -22 -12 -24
-23 -7 -34 -22 -47 -40 -33 -13 11 -14 10 -7 -11 4 -15 3 -21 -3 -17 -5 3 -24
-2 -42 -10 -23 -12 -35 -13 -43 -5 -6 6 -7 11 -1 11 5 0 4 4 -2 8 -7 4 -8 15
-3 27 6 15 8 16 8 4 1 -12 8 -15 26 -11 30 5 32 18 4 25 -11 3 -23 15 -26 26
-3 12 -12 21 -19 21 -8 0 -14 5 -14 11 0 5 -5 7 -10 4 -7 -4 -10 6 -8 27 2 33
-25 88 -44 88 -6 0 -8 6 -5 14 4 9 -5 22 -20 32 -23 15 -25 18 -11 28 12 9 13
17 6 29 -5 10 -13 15 -19 12 -5 -4 -9 1 -9 9 0 8 -7 21 -15 29 -13 13 -13 16
0 21 10 4 15 -1 15 -14 0 -11 7 -20 15 -20 8 0 15 -4 15 -10 0 -5 5 -10 11
-10 7 0 9 9 5 24 -4 16 -1 26 8 29 10 4 12 0 8 -16 -5 -20 -4 -20 11 -8 13 11
17 11 17 1 0 -8 3 -10 7 -7 8 8 34 -13 28 -22 -2 -4 2 -8 10 -8 17 0 21 62 5
72 -5 3 -10 0 -10 -7 0 -7 -10 -2 -23 12 -15 16 -22 33 -19 47 2 13 -1 23 -7
23 -6 0 -11 -5 -11 -11 0 -5 -8 -9 -17 -7 -10 1 -24 -1 -31 -5 -17 -11 -27 20
-12 38 8 9 8 15 2 15 -6 0 -12 -5 -14 -12 -3 -7 -7 -6 -11 5 -3 9 -2 17 4 17
6 0 8 8 5 18 -10 32 18 48 54 31 18 -8 60 -3 60 8 0 7 6 10 14 7 9 -3 17 3 20
15 3 12 9 31 12 42 4 13 2 19 -4 15 -6 -4 -10 16 -9 54 1 33 5 60 9 60 4 0 8
7 8 15 0 8 -4 15 -10 15 -13 0 -13 96 1 160 8 39 8 54 -2 66 -10 13 -10 17 0
24 10 6 11 20 5 61 -5 30 -7 70 -4 89 4 24 1 41 -9 54 -10 12 -11 16 -3 12 10
-6 11 -1 7 17 -4 14 -2 28 3 31 10 6 20 -28 21 -64 1 -109 3 -119 24 -126 27
-9 33 -6 29 12 -4 19 5 18 31 -6 18 -18 20 -22 7 -30 -8 -6 -21 -8 -27 -5 -8
2 -13 -4 -13 -15 0 -18 -11 -25 -33 -21 -4 1 -4 -11 -1 -25 5 -19 4 -25 -5
-20 -7 5 -11 -2 -11 -21 0 -23 2 -25 11 -13 8 12 9 9 5 -12 -7 -32 10 -48 19
-18 3 11 13 20 21 20 8 0 14 10 14 26 0 14 -4 23 -10 19 -5 -3 -10 1 -10 10 0
9 5 13 10 10 6 -3 11 4 11 17 l2 23 4 -24 c3 -13 13 -26 24 -28 11 -3 22 -17
25 -32 3 -14 7 -34 9 -43 2 -10 -3 -18 -10 -18 -8 0 -19 8 -24 18 -9 15 -12
15 -21 2 -5 -8 -10 -19 -10 -25 0 -5 4 -5 8 2 4 6 7 -16 7 -48 l1 -59 -39 4
c-32 4 -36 2 -27 -10 9 -10 8 -17 -4 -29 -19 -20 -20 -29 -3 -55 10 -17 9 -22
-2 -29 -9 -6 -12 -20 -9 -42 3 -19 1 -45 -4 -58 -7 -20 -4 -29 16 -49 l24 -25
16 37 c18 42 36 40 36 -5 0 -18 -4 -28 -10 -24 -5 3 -10 1 -10 -5 0 -6 7 -13
15 -16 8 -4 15 -15 15 -25 0 -10 4 -19 9 -19 5 0 7 9 4 20 -3 12 0 20 7 20 6
0 14 -9 17 -20 3 -12 11 -19 17 -17 7 2 10 32 9 83 -1 95 -3 105 -15 121 -7 9
-6 15 5 19 16 6 16 -19 4 1019 -1 127 -6 235 -10 242 -11 17 -16 142 -7 148
13 8 0 199 -13 207 -9 6 -8 8 1 8 8 0 12 6 9 13 -2 6 -10 11 -16 10 -6 -2 -9
7 -7 20 2 12 8 21 14 20 6 -2 11 10 11 25 1 15 2 34 2 42 1 8 -2 34 -5 58 -3
24 -2 41 2 38 4 -2 6 23 4 57 -4 66 -4 75 0 122 2 23 -1 30 -14 29 -22 -2 -24
14 -2 23 11 4 15 18 14 47 -1 22 -1 46 0 51 5 31 -2 320 -9 371 -5 34 -5 66 1
77 6 12 5 19 -7 23 -8 3 -15 13 -15 22 0 13 3 12 15 -4 14 -18 14 -18 15 8 0
15 -4 29 -10 33 -5 3 -8 35 -6 70 2 41 -1 66 -8 69 -7 3 -4 11 8 20 11 9 17
18 14 22 -9 8 -48 -15 -48 -28 0 -8 -3 -9 -10 -2 -12 12 -2 47 10 39 5 -3 15
-2 24 1 13 5 14 9 5 20 -9 11 -8 14 5 14 10 0 14 4 11 10 -3 5 -2 17 3 26 5 9
6 32 2 50 -5 19 -4 34 1 34 5 0 9 5 9 10 0 7 -6 7 -19 0 -14 -7 -20 -7 -23 2
-7 19 -30 -3 -25 -23 3 -11 1 -19 -3 -19 -5 0 -12 -16 -16 -35 -9 -48 -29 -39
-29 13 0 31 4 42 18 46 9 2 17 12 17 23 0 15 -2 16 -10 3 -5 -8 -10 -10 -10
-5 0 13 20 43 20 30 0 -5 8 4 19 20 22 36 19 45 -20 45 -16 0 -29 5 -29 11 0
6 11 8 29 4 24 -5 33 -1 51 22 l22 28 -7 -28 c-5 -17 -3 -27 4 -27 6 0 14 0
18 0 4 0 8 20 11 45 2 29 -1 45 -8 45 -7 0 -9 12 -5 33 10 53 12 227 3 227 -4
0 -8 5 -8 10 0 6 11 10 25 10 24 0 25 -2 24 -72z m-209 52 c0 -5 -2 -10 -4
-10 -3 0 -8 5 -11 10 -3 6 -1 10 4 10 6 0 11 -4 11 -10z m-75 -10 c-16 -4 -66
-13 -110 -19 -173 -27 -552 -148 -563 -181 -2 -5 -8 -8 -13 -4 -8 4 -101 -43
-184 -93 -11 -7 -27 -15 -35 -19 -34 -17 -69 -48 -63 -57 3 -6 1 -7 -5 -3 -19
12 -202 -115 -202 -140 0 -6 -8 -11 -17 -10 -11 0 -19 -7 -21 -21 -2 -15 -8
-20 -18 -16 -11 4 -49 -28 -118 -100 -57 -58 -114 -120 -127 -138 -13 -17 -35
-45 -49 -63 -62 -77 -90 -115 -90 -122 0 -4 -9 -17 -19 -28 -31 -33 -191 -326
-191 -349 0 -7 -7 -25 -16 -42 -21 -40 -94 -261 -94 -286 0 -11 -7 -33 -15
-49 -8 -16 -21 -75 -29 -132 -8 -57 -20 -124 -25 -148 -25 -107 -8 -551 25
-668 9 -28 24 -91 34 -140 20 -91 82 -285 98 -305 5 -7 15 -30 22 -52 19 -57
121 -243 198 -360 110 -167 253 -324 427 -468 61 -51 117 -96 126 -102 10 -5
38 -25 63 -42 26 -18 49 -33 51 -33 2 0 24 -13 47 -29 24 -16 86 -50 138 -76
52 -25 103 -51 113 -56 29 -16 267 -101 351 -126 62 -18 82 -20 88 -10 6 8 10
9 16 1 13 -19 50 -34 99 -40 26 -2 80 -9 118 -14 39 -5 100 -12 138 -15 37 -4
67 -10 67 -15 0 -5 -30 -7 -67 -5 -133 6 -288 17 -295 22 -4 2 -42 10 -85 18
-127 24 -235 51 -277 69 -21 9 -45 16 -53 16 -7 0 -43 13 -78 30 -35 16 -68
30 -72 30 -4 1 -26 9 -48 20 -22 11 -45 19 -52 20 -6 0 -13 3 -15 8 -4 9 -109
62 -124 62 -6 0 -21 11 -34 25 -13 14 -29 25 -35 25 -7 0 -20 9 -29 19 -10 11
-29 22 -43 26 -27 6 -43 17 -75 53 -12 12 -25 22 -28 22 -4 0 -30 21 -57 47
-28 27 -64 58 -80 70 -48 38 -166 157 -208 212 -22 28 -52 67 -67 85 -16 19
-28 38 -28 42 0 5 -14 22 -30 38 -17 16 -30 35 -30 41 0 7 -9 24 -20 38 -34
43 -170 303 -170 325 0 6 -16 41 -35 79 -19 37 -35 77 -35 87 0 11 -6 27 -14
35 -7 9 -24 61 -36 116 -13 55 -26 106 -31 115 -7 14 -29 143 -32 198 -1 12
-4 22 -7 22 -3 0 -6 33 -6 72 -1 40 -3 118 -4 173 -4 143 9 314 31 428 10 54
19 109 19 122 0 13 4 26 9 30 14 8 42 141 34 161 -4 12 -3 15 6 10 14 -9 42
53 44 100 1 17 5 30 10 27 8 -5 11 11 7 41 -1 11 3 15 9 12 7 -4 8 -1 5 8 -3
9 -1 16 5 16 14 0 15 37 1 45 -12 7 -4 25 12 25 5 0 8 -7 4 -15 -3 -8 -2 -15
2 -15 4 0 20 28 36 63 16 34 35 69 43 78 8 9 13 20 11 25 -5 19 121 204 234
344 76 94 346 360 366 360 2 0 25 17 51 38 25 21 53 42 61 45 21 9 51 29 68
45 7 6 19 12 26 12 7 0 21 8 32 19 33 30 340 171 373 171 6 0 19 4 29 9 58 32
454 120 537 119 43 0 46 -1 20 -8z m321 -52 c-19 -26 -20 -20 -5 19 6 15 13
22 16 16 2 -7 -3 -23 -11 -35z m-1031 9 c-54 -31 -75 -38 -75 -26 0 5 12 14
28 19 15 6 34 14 42 19 8 6 22 10 30 10 8 1 -3 -10 -25 -22z m1590 -792 c3
-424 7 -1013 10 -1310 3 -297 8 -925 11 -1395 4 -470 11 -856 15 -858 12 -5
11 -32 -1 -32 -5 0 -10 -13 -10 -30 0 -16 -4 -30 -9 -30 -5 0 -12 181 -15 402
-12 750 -17 1133 -14 1168 7 100 -10 2819 -18 2832 -9 14 5 43 16 32 6 -6 12
-315 15 -779z m-1724 725 c-28 -24 -60 -28 -41 -6 6 8 21 17 33 19 12 2 24 5
27 5 3 1 -6 -8 -19 -18z m-66 -29 c-23 -21 -107 -61 -103 -49 3 7 18 19 34 26
16 7 36 17 44 22 20 12 37 13 25 1z m-141 -86 c-16 -14 -33 -25 -37 -25 -5 0
-30 -18 -56 -40 -26 -22 -52 -40 -58 -40 -5 0 -18 -9 -28 -20 -10 -11 -21 -20
-25 -20 -4 0 -28 -19 -52 -42 -25 -24 -65 -61 -89 -84 -65 -60 -261 -280 -278
-311 -7 -14 -22 -36 -32 -47 -18 -19 -20 -24 -23 -56 -1 -8 -7 -14 -14 -13
-15 3 -79 -92 -128 -188 -21 -41 -42 -80 -48 -87 -24 -33 -96 -225 -126 -337
-10 -38 -23 -83 -29 -100 -68 -205 -101 -560 -75 -815 21 -210 24 -231 37
-223 9 5 9 3 1 -8 -21 -26 53 -333 110 -461 5 -11 4 -18 -3 -18 -6 0 -18 15
-26 33 -17 38 -71 217 -80 267 -4 19 -17 80 -30 135 -27 114 -45 312 -45 494
0 147 41 480 68 551 3 8 13 44 23 80 22 84 46 152 74 215 13 28 33 71 44 96
12 25 21 51 21 56 0 6 16 41 35 79 19 37 35 74 35 81 0 7 4 13 10 13 5 0 19
18 30 40 11 22 34 59 51 82 16 24 45 66 64 93 26 39 122 159 184 230 51 59
322 305 336 305 3 0 21 11 39 25 18 14 38 25 44 25 6 0 12 3 14 8 4 10 70 52
82 52 5 0 -4 -11 -20 -25z m866 -91 c0 -2 -11 -4 -25 -4 -14 0 -25 4 -25 9 0
4 11 6 25 3 14 -2 25 -6 25 -8z m1645 -275 c3 -151 7 -587 10 -969 9 -1271 16
-1944 20 -2070 3 -69 5 -226 6 -348 1 -193 -1 -226 -15 -240 -20 -20 -29 -11
-26 25 6 54 4 1014 -3 1758 -12 1155 -13 2135 -4 2126 4 -4 10 -131 12 -282z
m-1402 265 c31 -4 57 -11 57 -16 0 -5 -12 -7 -27 -4 -16 3 -55 8 -88 12 -33 3
-87 10 -120 14 -52 8 -48 8 30 4 50 -2 116 -7 148 -10z m-1183 -39 c0 -8 -2
-15 -4 -15 -2 0 -6 7 -10 15 -3 8 -1 15 4 15 6 0 10 -7 10 -15z m1227 -31 c-3
-3 -12 -4 -19 -1 -8 3 -5 6 6 6 11 1 17 -2 13 -5z m-77 -24 c0 -22 -34 -28
-46 -8 -5 8 -2 9 10 5 10 -4 19 -1 22 8 8 21 14 19 14 -5z m990 10 c0 -5 -4
-10 -10 -10 -5 0 -10 5 -10 10 0 6 5 10 10 10 6 0 10 -4 10 -10z m-963 -42
c-3 -8 -6 -5 -6 6 -1 11 2 17 5 13 3 -3 4 -12 1 -19z m-157 2 c0 -5 -2 -10 -4
-10 -3 0 -8 5 -11 10 -3 6 -1 10 4 10 6 0 11 -4 11 -10z m-290 -24 c0 -3 -4
-8 -10 -11 -5 -3 -10 -1 -10 4 0 6 5 11 10 11 6 0 10 -2 10 -4z m591 -29 c-10
-9 -11 -8 -5 6 3 10 9 15 12 12 3 -3 0 -11 -7 -18z m-91 3 c0 -5 -2 -10 -4
-10 -3 0 -8 5 -11 10 -3 6 -1 10 4 10 6 0 11 -4 11 -10z m1082 -52 l23 -33
-35 29 c-19 16 -39 35 -43 43 -17 29 31 -5 55 -39z m-2009 0 c9 -21 12 -38 7
-38 -8 0 -30 53 -30 73 0 15 6 6 23 -35z m308 9 c-10 -9 -11 -8 -5 6 3 10 9
15 12 12 3 -3 0 -11 -7 -18z m634 -40 c-4 -12 -7 -31 -8 -42 -1 -11 -6 -23
-11 -26 -5 -4 -9 -26 -9 -50 -1 -24 -7 -50 -14 -57 -18 -18 -29 -85 -14 -90 6
-2 11 -8 11 -13 0 -6 -4 -7 -10 -4 -6 3 -10 -4 -10 -17 0 -15 -3 -19 -8 -10
-5 7 -6 34 -2 60 3 26 3 59 -1 72 -4 14 -7 19 -8 12 -1 -7 -5 -10 -11 -7 -14
9 -12 25 3 25 6 0 20 14 30 31 18 32 23 79 8 79 -5 0 -11 9 -14 20 -6 24 -3
25 17 4 15 -14 16 -13 16 8 0 17 6 24 21 25 17 2 20 -2 14 -20z m-95 -27 c0
-5 -4 -10 -10 -10 -5 0 -10 5 -10 10 0 6 5 10 10 10 6 0 10 -4 10 -10z m-133
-16 c-3 -3 -12 -4 -19 -1 -8 3 -5 6 6 6 11 1 17 -2 13 -5z m118 -12 c-3 -3
-11 0 -18 7 -9 10 -8 11 6 5 10 -3 15 -9 12 -12z m1685 -23 c0 -6 -4 -7 -10
-4 -5 3 -10 11 -10 16 0 6 5 7 10 4 6 -3 10 -11 10 -16z m-1793 -16 c4 -10 11
-21 17 -25 6 -4 -6 -6 -27 -5 -20 1 -37 5 -37 10 0 4 5 7 10 7 6 0 10 7 10 15
0 21 19 19 27 -2z m-1387 -13 c0 -5 -5 -10 -11 -10 -5 0 -7 5 -4 10 3 6 8 10
11 10 2 0 4 -4 4 -10z m816 -8 c1 -7 0 -8 -3 -2 -3 7 -11 7 -24 0 -11 -7 -19
-7 -19 -1 0 21 42 24 46 3z m213 -43 c-5 -11 -15 -17 -21 -13 -7 4 -6 10 3 16
11 7 11 11 2 15 -10 3 -10 10 -1 26 l11 21 8 -23 c6 -13 5 -30 -2 -42z m431
57 c0 -2 -7 -6 -15 -10 -8 -3 -15 -1 -15 4 0 6 7 10 15 10 8 0 15 -2 15 -4z
m70 -6 c0 -5 -7 -7 -15 -4 -8 4 -15 8 -15 10 0 2 7 4 15 4 8 0 15 -4 15 -10z
m124 -44 c-3 -9 -10 -16 -15 -16 -11 0 -12 43 -2 54 10 10 24 -20 17 -38z
m-594 -6 c0 -5 -5 -10 -11 -10 -5 0 -7 5 -4 10 3 6 8 10 11 10 2 0 4 -4 4 -10z
m360 0 c0 -5 -5 -10 -11 -10 -5 0 -7 5 -4 10 3 6 8 10 11 10 2 0 4 -4 4 -10z
m-273 -22 c-3 -8 -6 -5 -6 6 -1 11 2 17 5 13 3 -3 4 -12 1 -19z m-187 -8 c0
-5 -2 -10 -4 -10 -3 0 -8 5 -11 10 -3 6 -1 10 4 10 6 0 11 -4 11 -10z m-225
-10 c3 -5 -1 -10 -10 -10 -9 0 -13 5 -10 10 3 6 8 10 10 10 2 0 7 -4 10 -10z
m350 0 c3 -5 1 -10 -4 -10 -6 0 -11 5 -11 10 0 6 2 10 4 10 3 0 8 -4 11 -10z
m-268 -62 c-3 -7 -5 -2 -5 12 0 14 2 19 5 13 2 -7 2 -19 0 -25z m433 22 c0 -5
-2 -10 -4 -10 -3 0 -8 5 -11 10 -3 6 -1 10 4 10 6 0 11 -4 11 -10z m-505 -20
c8 0 11 -7 8 -20 -5 -19 -6 -19 -19 6 -8 14 -14 29 -13 33 0 3 3 0 6 -6 2 -7
11 -13 18 -13z m185 -16 c0 -8 -5 -12 -10 -9 -6 4 -8 11 -5 16 9 14 15 11 15
-7z m57 -26 c-3 -8 -6 -5 -6 6 -1 11 2 17 5 13 3 -3 4 -12 1 -19z m-302 -28
c3 -5 1 -10 -4 -10 -6 0 -11 5 -11 10 0 6 2 10 4 10 3 0 8 -4 11 -10z m35 6
c0 -3 -4 -8 -10 -11 -5 -3 -10 -1 -10 4 0 6 5 11 10 11 6 0 10 -2 10 -4z m950
-25 c0 -6 -4 -13 -10 -16 -5 -3 -10 1 -10 9 0 9 5 16 10 16 6 0 10 -4 10 -9z
m-910 -103 c0 -5 -4 -8 -10 -8 -5 0 -10 10 -10 23 0 18 2 19 10 7 5 -8 10 -18
10 -22z m110 28 c0 -3 -4 -8 -10 -11 -5 -3 -10 -1 -10 4 0 6 5 11 10 11 6 0
10 -2 10 -4z m667 -28 c-3 -7 -5 -2 -5 12 0 14 2 19 5 13 2 -7 2 -19 0 -25z
m-322 -8 c3 -5 1 -10 -4 -10 -6 0 -11 5 -11 10 0 6 2 10 4 10 3 0 8 -4 11 -10z
m-485 -21 c0 -6 -4 -7 -10 -4 -5 3 -10 11 -10 16 0 6 5 7 10 4 6 -3 10 -11 10
-16z m80 11 c0 -5 -2 -10 -4 -10 -3 0 -8 5 -11 10 -3 6 -1 10 4 10 6 0 11 -4
11 -10z m1988 -29 c2 -13 -1 -28 -7 -34 -8 -8 -11 -5 -11 10 0 12 -3 29 -7 39
-4 12 -2 15 8 12 8 -2 16 -15 17 -27z m596 -17 c7 -53 -12 -107 -42 -123 -33
-18 -46 -13 -21 8 24 19 24 20 29 149 0 6 6 12 14 12 8 0 16 -17 20 -46z
m-1180 21 c10 -26 -4 -43 -94 -115 -100 -80 -120 -100 -99 -101 16 0 -19 -17
-38 -18 -26 -2 -12 24 39 70 28 27 57 50 65 53 8 3 11 11 7 17 -4 7 -3 9 4 5
6 -3 19 4 29 17 10 13 26 26 36 30 10 4 15 11 12 17 -4 6 1 7 12 3 15 -5 16
-3 6 8 -7 7 -13 17 -13 21 0 14 28 8 34 -7z m-993 -46 l-10 -24 0 26 c-1 14 2
29 6 33 12 12 14 -9 4 -35z m-181 20 c0 -5 5 -7 12 -3 7 4 8 3 4 -4 -4 -6 -13
-9 -21 -5 -17 6 -20 23 -5 23 6 0 10 -5 10 -11z m1708 -71 c61 -67 68 -80 56
-113 -5 -13 -8 -14 -15 -3 -5 7 -9 22 -9 33 0 11 -26 45 -61 77 -33 32 -57 62
-54 68 10 16 14 13 83 -62z m12 62 c0 -5 -5 -10 -11 -10 -5 0 -7 5 -4 10 3 6
8 10 11 10 2 0 4 -4 4 -10z m345 -20 c-3 -11 1 -33 10 -50 17 -32 6 -40 -19
-14 -16 15 -22 75 -10 87 12 12 25 -4 19 -23z m147 7 c-1 -8 7 -22 20 -31 28
-20 16 -33 -17 -18 -19 9 -25 19 -25 43 0 20 4 29 13 26 6 -2 11 -11 9 -20z
m-2549 -27 c3 -11 1 -20 -4 -20 -5 0 -9 9 -9 20 0 11 2 20 4 20 2 0 6 -9 9
-20z m1947 -15 c0 -8 -3 -15 -7 -15 -5 0 -39 -29 -78 -65 -39 -36 -72 -59 -74
-52 -4 11 135 147 151 147 4 0 8 -7 8 -15z m-1115 -15 c3 -5 1 -10 -4 -10 -6
0 -11 5 -11 10 0 6 2 10 4 10 3 0 8 -4 11 -10z m1695 -35 c0 -14 -8 -29 -19
-35 -34 -18 -46 -11 -23 13 12 13 22 29 22 35 0 7 5 12 10 12 6 0 10 -11 10
-25z m-1591 -44 c-1 -13 -2 -13 -6 2 -2 9 -9 17 -14 17 -5 0 -9 5 -9 11 0 8 5
8 15 -1 8 -7 14 -20 14 -29z m-431 -46 c1 -25 3 -49 5 -54 1 -5 -2 -9 -8 -10
-5 -1 -11 4 -11 9 -1 6 -2 15 -3 20 0 6 -6 9 -13 8 -6 -2 -14 5 -16 15 -2 9 1
17 7 17 6 0 11 -5 11 -11 0 -5 5 -7 11 -3 7 4 7 10 1 16 -8 8 1 32 14 38 0 0
2 -20 2 -45z m1535 -3 c62 -37 92 -167 54 -239 -19 -37 -70 -71 -118 -79 l-34
-5 30 14 c86 40 122 105 109 194 -8 55 -65 120 -113 129 -17 4 -31 10 -31 14
0 11 68 -8 103 -28z m-1983 14 c0 -3 -4 -8 -10 -11 -5 -3 -10 -1 -10 4 0 6 5
11 10 11 6 0 10 -2 10 -4z m1458 -29 c2 -17 -1 -27 -10 -27 -8 0 -13 13 -14
30 -1 38 20 35 24 -3z m-1131 1 c-3 -8 -6 -5 -6 6 -1 11 2 17 5 13 3 -3 4 -12
1 -19z m2308 0 c7 -30 1 -146 -8 -155 -13 -13 -17 4 -20 90 -2 65 1 87 10 87
7 0 15 -10 18 -22z m-2624 -7 c-6 -10 -7 -21 -3 -25 3 -4 -2 -4 -12 0 -15 6
-17 4 -11 -6 5 -9 4 -11 -4 -6 -9 6 -9 11 0 22 6 8 8 14 3 14 -11 0 18 20 29
20 4 0 3 -8 -2 -19z m2095 -2 c9 -16 -18 -30 -33 -17 -7 6 -13 14 -13 19 0 13
38 11 46 -2z m-266 -20 c-40 -16 -80 -67 -80 -104 0 -39 32 -82 74 -101 l31
-13 -32 -1 c-41 0 -84 41 -93 91 -13 70 37 139 100 138 l25 0 -25 -10z m-1814
-23 c0 -14 -6 -22 -13 -19 -9 4 -9 9 0 24 15 24 15 24 13 -5z m2484 14 c10 -6
11 -10 3 -10 -9 0 -13 -16 -13 -44 0 -25 -4 -48 -10 -51 -6 -4 -10 17 -10 54
0 62 4 68 30 51z m-162 -67 l-3 -67 45 -16 c25 -9 61 -23 80 -32 19 -8 65 -28
103 -43 37 -15 67 -30 67 -34 0 -19 -32 -41 -95 -66 -38 -14 -99 -40 -133 -57
-35 -16 -66 -27 -70 -24 -9 9 -3 12 129 70 138 61 153 79 84 103 -22 7 -58 22
-80 32 -22 10 -67 27 -100 38 -43 14 -60 24 -59 36 0 9 1 42 2 72 2 43 5 55
18 55 13 0 15 -11 12 -67z m-2098 27 c0 -5 -5 -10 -11 -10 -5 0 -7 5 -4 10 3
6 8 10 11 10 2 0 4 -4 4 -10z m201 -37 c-9 -15 -10 -12 -10 17 0 29 1 32 10
18 7 -12 7 -24 0 -35z m79 23 c0 -2 -8 -10 -17 -17 -16 -13 -17 -12 -4 4 13
16 21 21 21 13z m933 -94 c2 -72 -4 -104 -17 -91 -4 4 -9 151 -7 184 1 5 5 5
11 -1 6 -6 12 -47 13 -92z m-1001 5 c-8 -9 -10 -36 -6 -78 l5 -64 -17 35 c-9
19 -16 43 -15 52 2 13 -3 16 -16 12 -17 -5 -17 -5 0 9 19 16 23 47 5 47 -6 0
-3 6 8 14 16 13 21 13 33 1 11 -11 12 -17 3 -28z m-339 3 c-5 -20 -23 -38 -23
-23 1 22 13 52 20 48 5 -3 6 -14 3 -25z m1052 -27 c2 -52 -2 -73 -16 -73 -10
0 -12 113 -2 123 11 12 16 -1 18 -50z m158 3 c-3 -51 -8 -66 -23 -66 -8 0 -8
36 -1 113 1 5 7 7 14 4 8 -2 11 -20 10 -51z m-566 7 c-3 -10 -5 -4 -5 12 0 17
2 24 5 18 2 -7 2 -21 0 -30z m-457 23 c0 -3 -4 -8 -10 -11 -5 -3 -10 -1 -10 4
0 6 5 11 10 11 6 0 10 -2 10 -4z m-435 -26 c3 -5 1 -10 -4 -10 -6 0 -11 5 -11
10 0 6 2 10 4 10 3 0 8 -4 11 -10z m272 -32 c1 -32 -1 -38 -7 -23 -11 26 -12
65 -2 65 4 0 8 -19 9 -42z m37 36 c23 -9 20 -23 -4 -21 -11 1 -20 7 -20 14 0
15 2 15 24 7z m-264 -18 c0 -3 -4 -8 -10 -11 -5 -3 -10 -1 -10 4 0 6 5 11 10
11 6 0 10 -2 10 -4z m198 -28 c-6 -18 -25 -21 -25 -3 0 8 7 15 15 15 7 0 12
-5 10 -12z m120 -12 c13 -13 -20 -32 -48 -28 -29 4 -41 -10 -20 -23 8 -5 7
-11 -1 -21 -15 -18 -31 -7 -24 17 5 15 1 19 -14 19 -12 0 -21 5 -21 10 0 6 10
8 24 4 13 -3 27 -1 30 5 4 5 14 7 24 4 15 -6 15 -5 3 11 -13 15 -12 17 14 12
15 -3 30 -7 33 -10z m412 -1 c0 -8 -4 -15 -10 -15 -5 0 -10 7 -10 15 0 8 5 15
10 15 6 0 10 -7 10 -15z m-775 -5 c3 -5 1 -10 -4 -10 -6 0 -11 5 -11 10 0 6 2
10 4 10 3 0 8 -4 11 -10z m2563 -51 c-2 -19 -7 -33 -13 -32 -12 3 -19 49 -10
71 10 26 27 -2 23 -39z m-2013 31 c3 -5 1 -10 -4 -10 -6 0 -11 5 -11 10 0 6 2
10 4 10 3 0 8 -4 11 -10z m487 -12 c-7 -7 -12 -8 -12 -2 0 14 12 26 19 19 2
-3 -1 -11 -7 -17z m-1038 -17 c-4 -3 -9 0 -11 7 -4 10 -8 10 -19 1 -9 -7 -14
-8 -14 -1 0 6 6 12 13 15 14 5 40 -13 31 -22z m396 21 c0 -5 -7 -9 -15 -9 -8
0 -15 4 -15 9 0 4 7 8 15 8 8 0 15 -4 15 -8z m-190 -12 c0 -5 -2 -10 -4 -10
-3 0 -8 5 -11 10 -3 6 -1 10 4 10 6 0 11 -4 11 -10z m694 -83 c-2 -120 -1
-117 -21 -116 -11 0 -13 3 -5 6 8 3 12 34 12 104 0 54 3 99 8 99 4 0 6 -42 6
-93z m-559 75 c6 -4 16 -14 23 -23 11 -14 9 -16 -12 -16 -17 0 -23 4 -19 13 3
8 0 14 -6 14 -6 0 -11 5 -11 10 0 12 11 13 25 2z m-368 -26 c-13 -10 -15 -15
-5 -19 7 -2 9 -8 5 -13 -4 -5 -12 -2 -17 6 -10 16 5 40 24 40 6 0 3 -7 -7 -14z
m439 -8 c4 -13 2 -24 -5 -26 -6 -2 -11 -10 -11 -18 0 -14 -12 -19 -23 -8 -3 4
1 13 9 21 8 9 12 23 9 34 -4 10 -2 19 4 19 5 0 13 -10 17 -22z m93 -28 c-7
-19 -15 -27 -25 -23 -19 7 -18 16 6 31 12 7 18 18 14 24 -4 6 -3 8 4 4 8 -4 8
-15 1 -36z m1081 -36 c0 -92 -23 -141 -81 -174 -53 -29 -71 -21 -23 10 21 14
49 40 61 59 20 29 23 45 20 108 -2 54 1 73 10 73 9 0 13 -21 13 -76z m583 64
c9 -26 -13 -57 -80 -111 -37 -31 -83 -72 -100 -92 -31 -35 -53 -39 -53 -11 0
8 10 20 23 29 12 8 33 24 47 36 14 11 30 24 35 28 82 63 116 98 112 115 -6 20
8 25 16 6z m-1581 -55 c-7 -21 -25 -14 -19 7 3 12 0 20 -8 20 -8 0 -11 -10 -9
-27 2 -16 1 -20 -2 -9 -5 15 -8 16 -15 5 -5 -9 -7 -4 -5 16 3 24 8 30 25 28
11 -2 21 3 22 10 1 6 4 1 8 -13 4 -14 6 -31 3 -37z m275 25 c-3 -8 -6 -5 -6 6
-1 11 2 17 5 13 3 -3 4 -12 1 -19z m438 -49 c0 -47 3 -54 40 -86 36 -31 38
-34 15 -31 -42 6 -94 108 -76 153 11 30 21 14 21 -36z m1705 23 c0 -15 -2 -15
-10 -2 -13 20 -13 33 0 25 6 -3 10 -14 10 -23z m-3020 8 c0 -5 -4 -10 -10 -10
-5 0 -10 5 -10 10 0 6 5 10 10 10 6 0 10 -4 10 -10z m90 -15 c0 -8 -2 -15 -4
-15 -2 0 -6 7 -10 15 -3 8 -1 15 4 15 6 0 10 -7 10 -15z m2687 -208 l-3 -190
-34 -30 c-23 -20 -35 -26 -38 -17 -3 7 8 22 23 34 25 20 27 28 26 83 0 34 -1
65 -2 70 -1 4 -1 66 0 137 1 116 3 127 17 115 13 -11 15 -39 11 -202z m-2577
199 c0 -3 -4 -8 -10 -11 -5 -3 -10 -1 -10 4 0 6 5 11 10 11 6 0 10 -2 10 -4z
m187 -28 c-3 -8 -6 -5 -6 6 -1 11 2 17 5 13 3 -3 4 -12 1 -19z m-197 -2 c0
-11 -19 -15 -25 -6 -3 5 1 10 9 10 9 0 16 -2 16 -4z m2280 -6 c0 -5 -5 -10
-11 -10 -5 0 -7 5 -4 10 3 6 8 10 11 10 2 0 4 -4 4 -10z m-1873 -92 c-2 -18
-4 -4 -4 32 0 36 2 50 4 33 2 -18 2 -48 0 -65z m-160 60 c-3 -8 -6 -5 -6 6 -1
11 2 17 5 13 3 -3 4 -12 1 -19z m143 12 c0 -5 -4 -10 -10 -10 -5 0 -10 5 -10
10 0 6 5 10 10 10 6 0 10 -4 10 -10z m400 -4 c0 -3 -4 -8 -10 -11 -5 -3 -10
-1 -10 4 0 6 5 11 10 11 6 0 10 -2 10 -4z m-1055 -36 c-5 -16 -10 -19 -18 -11
-7 7 -6 15 3 26 17 20 24 13 15 -15z m432 -2 c-3 -7 -5 -2 -5 12 0 14 2 19 5
13 2 -7 2 -19 0 -25z m43 11 c0 -6 -4 -7 -10 -4 -5 3 -10 11 -10 16 0 6 5 7
10 4 6 -3 10 -11 10 -16z m2210 11 c0 -5 -4 -10 -10 -10 -5 0 -10 5 -10 10 0
6 5 10 10 10 6 0 10 -4 10 -10z m-2960 -29 c0 -6 -4 -13 -10 -16 -5 -3 -10 1
-10 9 0 9 5 16 10 16 6 0 10 -4 10 -9z m190 -15 c0 -2 -7 -9 -15 -16 -12 -10
-15 -10 -15 4 0 9 7 16 15 16 8 0 15 -2 15 -4z m504 -12 c3 -8 2 -12 -4 -9 -6
3 -10 10 -10 16 0 14 7 11 14 -7z m76 7 c0 -6 -4 -13 -10 -16 -5 -3 -10 1 -10
9 0 9 5 16 10 16 6 0 10 -4 10 -9z m500 -33 c0 -25 -3 -29 -10 -18 -13 20 -13
50 0 50 6 0 10 -15 10 -32z m-1036 7 c6 -16 -9 -21 -19 -5 -3 5 -13 7 -23 4
-14 -5 -15 -4 -2 5 21 15 37 14 44 -4z m434 6 c10 -6 8 -10 -10 -14 -34 -10
-48 -8 -48 4 0 5 4 8 9 4 5 -3 12 -1 16 5 7 12 16 12 33 1z m-188 -20 c0 -12
-29 -47 -30 -35 0 5 5 15 12 22 9 9 7 12 -12 12 -19 0 -21 3 -11 9 15 9 41 4
41 -8z m90 9 c0 -13 -12 -19 -26 -13 -21 8 -17 19 6 19 11 0 20 -3 20 -6z
m814 -1 c-3 -6 0 -15 7 -20 7 -4 10 -11 7 -14 -11 -11 -28 5 -28 26 0 10 5 19
11 19 5 0 7 -5 3 -11z m1156 -20 c0 -23 -4 -29 -22 -29 -17 0 -19 3 -9 9 10 6
10 13 3 28 -9 15 -7 19 9 20 15 1 19 -5 19 -28z m-1583 -31 c1 -27 -1 -29 -7
-13 -11 27 -12 57 -2 51 5 -3 9 -20 9 -38z m-728 18 c8 -9 8 -16 2 -20 -6 -4
-15 3 -21 14 -12 23 2 27 19 6z m1191 -26 c0 -5 -2 -10 -4 -10 -3 0 -8 5 -11
10 -3 6 -1 10 4 10 6 0 11 -4 11 -10z m-1272 -23 c9 4 20 11 24 17 5 7 8 4 8
-7 0 -11 -9 -21 -20 -24 -16 -4 -18 -8 -9 -19 6 -8 7 -14 2 -14 -9 0 -43 52
-43 67 0 4 5 0 11 -9 6 -11 16 -15 27 -11z m445 3 c3 -11 1 -18 -4 -14 -5 3
-9 12 -9 20 0 20 7 17 13 -6z m47 10 c0 -5 -4 -10 -10 -10 -5 0 -10 5 -10 10
0 6 5 10 10 10 6 0 10 -4 10 -10z m1312 -17 c9 -43 3 -156 -9 -160 -10 -4 -13
13 -13 61 0 35 -4 76 -10 90 -8 22 -7 26 9 26 10 0 20 -8 23 -17z m-1858 -9
c3 -8 2 -12 -4 -9 -6 3 -10 10 -10 16 0 14 7 11 14 -7z m866 -59 c-4 -27 -8
-40 -9 -27 -1 23 -21 32 -21 10 0 -7 -5 -5 -11 6 -9 14 -8 20 2 27 7 4 17 5
21 3 4 -3 8 7 8 22 0 17 4 24 9 19 4 -6 5 -32 1 -60z m-305 45 c3 -5 -3 -10
-14 -10 -12 0 -21 5 -21 10 0 6 6 10 14 10 8 0 18 -4 21 -10z m-435 -10 c0 -5
-4 -10 -10 -10 -5 0 -10 5 -10 10 0 6 5 10 10 10 6 0 10 -4 10 -10z m377 -12
c-3 -8 -6 -5 -6 6 -1 11 2 17 5 13 3 -3 4 -12 1 -19z m1228 -20 c-2 -24 -4
-51 -4 -60 -1 -10 -5 -18 -10 -18 -10 0 -13 72 -5 103 10 33 22 17 19 -25z
m715 12 c0 -16 -4 -30 -9 -30 -5 0 -11 14 -13 30 -3 20 0 30 9 30 8 0 13 -12
13 -30z m-1673 -12 c-3 -7 -5 -2 -5 12 0 14 2 19 5 13 2 -7 2 -19 0 -25z m805
-25 c-2 -32 -8 -62 -13 -67 -10 -11 -12 2 -11 69 1 56 1 55 15 55 8 0 11 -16
9 -57z m-1592 12 c5 3 10 -1 10 -10 0 -9 -4 -14 -8 -11 -5 3 -8 -5 -7 -17 1
-14 8 -21 17 -19 11 1 17 -8 20 -28 3 -16 1 -30 -4 -30 -4 0 -8 7 -8 15 0 14
-33 38 -42 30 -2 -2 -2 11 0 30 3 27 1 35 -12 35 -19 0 -22 26 -3 33 6 2 15
-5 19 -15 4 -11 12 -16 18 -13z m30 27 c0 -17 42 -57 57 -54 15 3 43 -15 43
-27 0 -4 -9 -7 -20 -8 -11 -1 -20 3 -20 9 0 6 -6 6 -15 -2 -13 -11 -14 -10 -9
4 4 11 2 15 -8 11 -9 -4 -20 7 -31 30 -20 42 -20 45 -7 45 6 0 10 -4 10 -8z
m311 -19 c-8 -15 -10 -15 -11 -2 0 17 10 32 18 25 2 -3 -1 -13 -7 -23z m2564
-12 c2 -19 9 -37 16 -42 7 -4 10 -11 6 -15 -18 -18 -62 52 -50 81 9 26 25 12
28 -24z m-2805 19 c0 -5 -5 -10 -11 -10 -5 0 -7 5 -4 10 3 6 8 10 11 10 2 0 4
-4 4 -10z m30 -26 c0 -8 -4 -12 -10 -9 -5 3 -10 13 -10 21 0 8 5 12 10 9 6 -3
10 -13 10 -21z m327 4 c-3 -8 -6 -5 -6 6 -1 11 2 17 5 13 3 -3 4 -12 1 -19z
m-160 -20 c-3 -8 -6 -5 -6 6 -1 11 2 17 5 13 3 -3 4 -12 1 -19z m483 2 c0 -5
-2 -10 -4 -10 -3 0 -8 5 -11 10 -3 6 -1 10 4 10 6 0 11 -4 11 -10z m2070 -18
c0 -7 -70 -70 -112 -100 -37 -27 -16 7 35 57 48 47 77 63 77 43z m-2900 -6 c0
-2 -7 -9 -15 -16 -13 -11 -14 -10 -9 4 5 14 24 23 24 12z m440 -12 c0 -8 -5
-12 -10 -9 -6 4 -8 11 -5 16 9 14 15 11 15 -7z m196 -11 c-10 -10 -19 5 -10
18 6 11 8 11 12 0 2 -7 1 -15 -2 -18z m158 3 c-6 -16 -24 -23 -24 -8 0 10 22
33 27 28 2 -2 1 -11 -3 -20z m145 -57 l0 -81 -20 26 c-21 27 -31 90 -14 93 5
1 12 11 17 22 13 36 17 23 17 -60z m1571 27 c0 -23 -5 -28 -120 -126 -36 -30
-71 -63 -78 -72 -7 -10 -20 -18 -28 -18 -23 0 -16 28 13 47 15 10 41 31 58 46
16 15 51 44 78 65 28 22 50 48 53 64 7 32 24 28 24 -6z m-2680 14 c0 -5 -4
-10 -10 -10 -5 0 -10 5 -10 10 0 6 5 10 10 10 6 0 10 -4 10 -10z m167 -33
c-34 -13 -48 -39 -31 -58 8 -8 14 -21 14 -28 0 -8 7 -10 19 -6 22 7 38 -22 21
-39 -7 -7 -10 -5 -10 7 0 10 -8 17 -20 17 -11 0 -20 7 -20 16 0 10 -6 13 -18
10 -16 -5 -19 -1 -19 29 0 25 5 35 16 36 11 0 9 4 -6 11 -26 13 -30 28 -8 28
8 0 15 -4 15 -10 0 -5 10 -10 21 -10 17 0 19 3 10 14 -10 11 -8 15 6 18 26 5
35 -25 10 -35z m175 25 c-7 -2 -12 -17 -12 -33 0 -32 -26 -41 -32 -11 -2 10
-6 13 -10 6 -4 -6 0 -23 8 -38 16 -32 19 -50 3 -23 -9 15 -13 16 -27 5 -14
-11 -15 -10 -9 5 4 10 7 30 7 43 0 15 6 24 15 24 9 0 18 7 21 15 4 8 10 12 15
9 5 -3 9 0 9 6 0 6 5 8 12 4 9 -6 9 -9 0 -12z m-42 4 c0 -3 -4 -8 -10 -11 -5
-3 -10 -1 -10 4 0 6 5 11 10 11 6 0 10 -2 10 -4z m397 -18 c-3 -8 -6 -5 -6 6
-1 11 2 17 5 13 3 -3 4 -12 1 -19z m280 -24 c-9 -9 -28 6 -21 18 4 6 10 6 17
-1 6 -6 8 -13 4 -17z m169 10 c-4 -9 -2 -22 4 -29 7 -8 7 -16 2 -19 -12 -7
-23 30 -15 50 3 8 7 14 10 14 3 0 2 -7 -1 -16z m-396 2 c0 -3 -4 -8 -10 -11
-5 -3 -10 -1 -10 4 0 6 5 11 10 11 6 0 10 -2 10 -4z m90 -13 c0 -15 2 -16 10
-3 8 12 10 13 10 1 0 -8 7 -22 16 -32 9 -10 14 -24 11 -31 -4 -8 -8 -5 -12 10
-4 12 -12 22 -18 22 -13 0 -47 30 -47 42 0 4 7 8 15 8 8 0 15 -8 15 -17z m346
-30 c-11 -11 -17 4 -9 23 7 18 8 18 11 1 2 -10 1 -21 -2 -24z m904 18 c5 -11
10 -42 10 -69 0 -41 -5 -55 -29 -81 -16 -17 -36 -31 -45 -31 -22 0 -20 17 3
25 28 8 43 56 39 119 -3 58 4 70 22 37z m-1890 -1 c0 -5 -2 -10 -4 -10 -3 0
-8 5 -11 10 -3 6 -1 10 4 10 6 0 11 -4 11 -10z m1050 -12 c0 -18 -2 -20 -9 -8
-6 8 -7 18 -5 22 9 14 14 9 14 -14z m-1189 -2 c-9 -11 -8 -17 2 -28 7 -7 12
-19 9 -26 -2 -7 2 -20 10 -29 12 -15 11 -15 -9 -3 -32 21 -41 100 -11 100 6 0
6 -5 -1 -14z m179 -23 c0 -24 -3 -33 -9 -25 -7 12 -4 62 5 62 2 0 4 -17 4 -37z
m498 -5 c13 2 17 -14 5 -21 -5 -2 -19 2 -33 9 -14 8 -19 14 -12 14 6 0 11 3
11 8 -4 23 4 33 10 12 4 -14 13 -24 19 -22z m197 22 c-3 -5 -1 -20 5 -32 11
-22 10 -22 -4 -4 -18 23 -21 46 -5 46 5 0 7 -4 4 -10z m-255 -29 c0 -4 -13 -8
-30 -9 -16 -1 -30 2 -30 8 0 5 7 7 15 4 10 -4 15 0 15 11 0 14 3 15 15 5 8 -7
15 -15 15 -19z m-209 -14 c-15 -15 -14 -67 1 -67 6 0 8 -3 4 -7 -4 -5 -14 1
-22 11 -12 17 -14 18 -14 3 0 -9 -4 -17 -10 -17 -5 0 -10 5 -10 10 0 17 -28
11 -33 -7 -3 -15 -6 -13 -14 7 -8 20 -7 26 5 31 15 5 15 7 0 15 -11 6 -13 15
-7 29 l8 20 1 -20 c0 -11 7 -29 15 -39 13 -18 20 -15 16 7 0 4 5 6 11 5 7 -2
14 7 16 19 2 14 8 20 18 16 8 -3 14 1 15 8 0 12 2 12 6 1 3 -8 0 -19 -6 -25z
m309 18 c0 -8 -4 -15 -10 -15 -5 0 -7 7 -4 15 4 8 8 15 10 15 2 0 4 -7 4 -15z
m1187 -58 c22 -24 8 -34 -17 -12 -11 10 -20 30 -20 45 0 37 14 48 18 13 2 -15
11 -36 19 -46z m1293 15 c-7 -13 -9 -8 -9 23 0 35 1 37 10 17 6 -15 5 -30 -1
-40z m-2023 16 c-3 -7 -5 -2 -5 12 0 14 2 19 5 13 2 -7 2 -19 0 -25z m175 -25
l-10 -38 -1 50 c-1 36 2 46 10 38 8 -8 8 -22 1 -50z m-843 8 c-2 -6 -10 2 -17
17 -11 25 -11 25 4 10 9 -9 15 -21 13 -27z m41 20 c0 -6 -4 -13 -10 -16 -5 -3
-10 1 -10 9 0 9 5 16 10 16 6 0 10 -4 10 -9z m235 -13 c14 2 25 2 25 -1 0 -15
-13 -37 -22 -37 -16 0 -38 28 -37 47 1 14 2 15 6 2 3 -11 12 -15 28 -11z m246
-32 c5 -6 10 1 11 20 1 20 3 16 7 -16 6 -43 7 -45 38 -43 24 1 30 -2 26 -13
-4 -10 -9 -12 -18 -4 -13 11 -45 4 -45 -11 0 -5 9 -9 19 -9 20 0 35 -25 25
-41 -3 -5 -10 -6 -16 -3 -6 4 -5 10 3 15 10 6 10 9 2 9 -22 0 -33 -33 -15 -46
13 -10 14 -16 4 -38 -7 -17 -8 -27 -1 -32 6 -4 6 -11 -2 -20 -7 -9 -10 -38 -7
-79 2 -36 1 -65 -3 -65 -5 0 -9 19 -11 43 -2 25 -8 41 -15 40 -6 -1 -14 4 -17
12 -3 9 0 12 10 8 18 -7 19 11 1 26 -7 6 -14 34 -16 63 -1 28 -4 55 -7 60 -3
4 -1 8 5 8 5 0 15 -8 20 -17 8 -15 11 -15 12 -3 3 29 -3 45 -23 66 -13 15 -16
24 -8 29 6 4 9 24 7 48 -2 23 -2 33 0 22 3 -11 9 -24 14 -29z m-991 34 c0 -5
-2 -10 -4 -10 -3 0 -8 5 -11 10 -3 6 -1 10 4 10 6 0 11 -4 11 -10z m583 -5
c-3 -9 -8 -14 -10 -11 -3 3 -2 9 2 15 9 16 15 13 8 -4z m331 -1 c3 -8 2 -12
-4 -9 -6 3 -10 10 -10 16 0 14 7 11 14 -7z m-515 -43 c0 -14 -1 -14 -6 -1 -3
8 -10 24 -15 35 -9 20 -9 20 6 1 9 -11 16 -27 15 -35z m67 19 c8 0 19 -12 24
-26 9 -21 15 -25 35 -20 29 7 32 -1 8 -20 -26 -19 -30 -18 -49 21 -10 21 -24
35 -34 35 -14 0 -17 5 -12 23 5 18 7 19 10 5 2 -10 10 -18 18 -18z m74 0 c0
-20 -5 -30 -15 -30 -8 0 -15 7 -15 16 0 9 5 12 12 8 7 -4 8 -3 4 4 -7 11 0 32
10 32 2 0 4 -13 4 -30z m-494 -10 c0 -27 -20 -20 -24 8 -2 15 1 20 10 17 8 -3
14 -14 14 -25z m84 10 c-6 -11 -15 -18 -21 -15 -15 10 -11 23 9 28 9 3 18 5
20 6 1 0 -2 -8 -8 -19z m1638 -27 c-44 -46 -87 -77 -96 -68 -9 8 110 115 121
108 5 -3 -6 -21 -25 -40z m-1578 21 c0 -3 -7 -12 -15 -21 -20 -19 -32 -9 -15
12 12 15 30 20 30 9z m400 -16 c0 -5 -5 -6 -11 -2 -8 5 -9 -5 -4 -34 5 -34 3
-42 -14 -51 -17 -9 -18 -16 -10 -43 5 -18 9 -34 9 -36 0 -1 -11 0 -24 4 -13 3
-27 1 -31 -5 -3 -6 -10 -9 -15 -6 -5 3 -12 -6 -16 -21 -10 -38 -34 -83 -35
-64 0 8 -4 5 -10 -8 -5 -13 -13 -20 -19 -17 -6 4 -3 15 7 30 10 12 21 21 26
18 7 -4 11 11 8 35 -1 6 3 12 9 12 6 0 8 5 5 10 -5 8 -11 7 -21 -1 -7 -6 -12
-15 -9 -19 3 -4 -2 -13 -10 -20 -8 -7 -15 -8 -15 -3 0 5 -12 9 -27 8 -22 0
-27 4 -25 18 2 10 0 24 -5 31 -4 6 -1 5 7 -4 18 -19 54 -35 45 -20 -3 6 1 13
9 16 9 3 16 13 16 22 0 8 3 12 6 9 13 -13 45 37 41 62 -2 15 -2 20 0 14 3 -7
8 -13 11 -14 4 0 15 -2 25 -4 11 -2 17 3 17 15 0 10 7 21 16 24 11 4 14 13 10
30 -3 12 -3 26 0 29 8 8 34 -3 34 -15z m200 -9 c0 -10 -7 -19 -15 -19 -8 0
-15 -7 -15 -16 0 -8 -3 -13 -7 -11 -5 3 -8 -12 -8 -34 0 -23 5 -41 13 -44 10
-4 12 2 7 25 -4 19 -3 30 4 30 21 0 33 -101 12 -108 -9 -3 -11 1 -6 17 4 12 2
21 -4 21 -6 0 -11 -5 -11 -11 0 -5 -4 -7 -10 -4 -5 3 -10 -2 -10 -11 0 -10 -7
-25 -16 -35 -18 -20 -55 -14 -47 8 5 14 8 14 19 -1 14 -19 21 -12 24 24 4 50
0 70 -15 70 -8 0 -15 5 -15 11 0 5 -4 8 -9 4 -5 -3 -12 -1 -16 5 -3 5 -1 10 4
10 6 0 11 5 11 11 0 6 -7 9 -15 5 -9 -3 -15 0 -15 10 0 8 5 12 10 9 6 -3 10
-1 10 4 0 6 5 11 11 11 5 0 7 -4 4 -10 -3 -5 -1 -18 4 -27 9 -16 10 -15 11 5
0 13 7 30 15 38 13 14 15 14 15 -1 0 -9 4 -14 10 -10 5 3 7 13 4 23 -4 10 -2
13 3 7 17 -20 35 -16 28 6 -5 15 -4 19 4 15 6 -4 11 -16 11 -27z m30 14 c0
-16 2 -16 11 -3 8 12 9 9 5 -12 -3 -15 -1 -28 5 -30 6 -2 12 -21 13 -43 1 -22
5 -46 10 -53 5 -8 4 -18 -2 -24 -6 -6 -8 -24 -5 -39 4 -20 1 -29 -7 -29 -7 0
-10 8 -7 20 3 12 -1 24 -11 30 -13 7 -13 9 -3 10 8 0 11 3 8 7 -4 3 -2 12 4
19 7 8 7 14 -1 19 -5 3 -10 1 -10 -5 0 -7 -5 -10 -12 -8 -14 5 -18 45 -7 74 4
12 5 25 1 28 -11 12 -13 56 -2 56 5 0 10 -8 10 -17z m-180 -30 c0 -50 -14 -73
-32 -55 -11 11 -10 13 2 10 11 -2 15 7 15 40 0 23 3 42 8 42 4 0 7 -17 7 -37z
m270 27 c0 -5 -2 -10 -4 -10 -3 0 -8 5 -11 10 -3 6 -1 10 4 10 6 0 11 -4 11
-10z m540 -14 c0 -8 6 -16 13 -19 6 -2 9 -7 6 -11 -3 -3 -14 -4 -23 0 -17 7
-23 44 -6 44 6 0 10 -6 10 -14z m1546 -78 c7 -11 -57 -1 -66 11 -3 3 -22 19
-42 34 -21 15 -38 32 -38 37 0 10 136 -66 146 -82z m-2878 56 c-17 -17 -39
-11 -37 9 0 9 2 9 6 0 3 -10 8 -9 20 3 8 8 18 12 21 9 3 -3 -1 -13 -10 -21z
m3052 -7 c0 -21 -31 -57 -49 -57 -4 0 -15 -8 -24 -18 -16 -17 -14 -20 28 -47
40 -25 45 -32 45 -64 0 -27 -3 -32 -10 -21 -5 8 -10 23 -10 32 0 11 -22 30
-55 49 -30 17 -55 35 -55 40 0 5 12 14 26 19 50 19 84 50 84 76 0 14 4 22 10
19 6 -3 10 -16 10 -28z m-2830 19 c0 -2 -7 -9 -15 -16 -12 -10 -15 -10 -15 4
0 9 7 16 15 16 8 0 15 -2 15 -4z m50 -18 c0 -10 -4 -18 -10 -18 -5 0 -6 -8 -3
-17 5 -15 4 -16 -8 -7 -8 6 -23 8 -34 4 -19 -7 -19 -7 0 -18 19 -11 19 -11 2
-12 -11 0 -27 10 -38 23 -16 19 -18 19 -19 5 0 -29 -20 -21 -20 8 0 25 2 25
40 19 26 -4 40 -3 40 4 0 6 7 11 16 11 8 0 13 4 10 8 -3 5 1 9 9 9 8 0 15 -9
15 -19z m56 3 c-8 -12 -46 -10 -46 2 0 5 9 7 20 4 11 -3 20 0 20 6 0 6 3 8 6
4 3 -3 3 -10 0 -16z m664 -2 c0 -6 -4 -7 -10 -4 -5 3 -10 11 -10 16 0 6 5 7
10 4 6 -3 10 -11 10 -16z m1475 10 c8 -12 -3 -64 -12 -55 -3 3 -7 19 -8 36 -3
30 8 40 20 19z m-2412 -16 c-6 -15 -39 -18 -47 -4 -7 10 7 17 34 17 10 0 16
-6 13 -13z m-733 -3 c0 -5 -4 -10 -10 -10 -5 0 -10 5 -10 10 0 6 5 10 10 10 6
0 10 -4 10 -10z m1360 -6 c0 -8 -4 -12 -10 -9 -5 3 -10 10 -10 16 0 5 5 9 10
9 6 0 10 -7 10 -16z m86 1 c-11 -8 -22 -12 -25 -9 -6 6 19 24 34 24 6 -1 1 -7
-9 -15z m-1479 -17 c-3 -8 -6 -5 -6 6 -1 11 2 17 5 13 3 -3 4 -12 1 -19z
m1903 -3 c0 -27 -6 -30 -30 -15 -13 8 -12 11 5 24 26 20 25 20 25 -9z m1180
16 c0 -6 -4 -13 -10 -16 -5 -3 -10 1 -10 9 0 9 5 16 10 16 6 0 10 -4 10 -9z
m-2056 -43 c8 -6 7 -8 -2 -8 -7 0 -10 -4 -7 -10 3 -6 -5 -10 -18 -10 -20 0
-24 4 -20 20 3 11 9 17 14 14 5 -3 10 5 10 18 1 20 2 21 6 3 3 -11 10 -23 17
-27z m496 26 c0 -8 -5 -12 -10 -9 -6 4 -17 1 -25 -5 -8 -7 -15 -9 -15 -5 0 9
31 34 43 35 4 0 7 -7 7 -16z m504 -12 c-11 -3 -15 -11 -11 -28 2 -14 0 -27 -4
-30 -5 -3 -9 15 -9 40 0 44 1 46 20 34 18 -11 18 -14 4 -16z m1106 8 c11 -11
20 -28 20 -37 -1 -14 -5 -12 -21 10 -11 15 -25 25 -30 21 -5 -3 -9 2 -9 10 0
22 16 20 40 -4z m-1356 -6 c18 -17 22 -39 6 -29 -11 7 -33 45 -26 45 2 0 12
-7 20 -16z m-958 -19 c-4 -24 -16 -30 -16 -7 0 12 4 22 9 22 5 0 8 -7 7 -15z
m934 0 c0 -9 -6 -12 -16 -8 -13 5 -13 7 -2 14 17 11 18 11 18 -6z m227 -1 c8
-20 -8 -36 -26 -25 -15 10 -8 41 9 41 6 0 13 -7 17 -16z m-807 -4 c0 -5 -4
-10 -10 -10 -5 0 -10 5 -10 10 0 6 5 10 10 10 6 0 10 -4 10 -10z m58 -3 c15
23 40 -9 34 -45 l-4 -33 -16 22 c-11 16 -12 24 -4 27 7 2 12 8 12 13 0 6 -6 7
-12 2 -7 -4 -23 -8 -35 -8 -18 -1 -20 2 -11 18 8 16 12 17 19 6 7 -10 11 -11
17 -2z m1358 -11 c6 -26 -1 -46 -15 -46 -10 0 -20 57 -13 65 11 11 22 4 28
-19z m-1806 7 c0 -5 -4 -14 -9 -21 -7 -11 -9 -11 -14 1 -3 8 -3 18 0 21 9 8
23 7 23 -1z m105 -21 c-8 -8 -25 10 -19 20 4 6 9 5 15 -3 4 -7 6 -15 4 -17z
m645 18 c0 -5 -5 -10 -11 -10 -5 0 -7 5 -4 10 3 6 8 10 11 10 2 0 4 -4 4 -10z
m-600 -10 c0 -5 -5 -10 -11 -10 -5 0 -7 5 -4 10 3 6 8 10 11 10 2 0 4 -4 4
-10z m981 -17 c5 -14 7 -39 4 -54 -6 -25 -9 -27 -26 -16 -12 7 -18 19 -15 30
2 9 0 17 -5 17 -13 0 -11 24 3 38 18 18 27 15 39 -15z m1172 13 c56 -24 91
-70 97 -129 7 -70 -6 -119 -41 -153 -36 -34 -48 -26 -19 14 27 37 42 104 34
149 -7 38 -67 107 -107 123 -12 5 -16 9 -9 9 7 1 27 -5 45 -13z m-2316 -37 c8
-3 6 -12 -7 -29 -19 -24 -19 -24 -13 -2 3 12 -1 30 -8 40 -12 15 -12 16 1 6 8
-6 20 -13 27 -15z m70 15 c-3 -3 -12 -4 -19 -1 -8 3 -5 6 6 6 11 1 17 -2 13
-5z m73 -15 c0 -11 5 -17 10 -14 6 3 10 -1 10 -9 0 -9 -2 -16 -5 -16 -10 0
-44 44 -39 52 10 15 24 8 24 -13z m294 10 c-4 -7 -44 0 -44 7 0 2 11 3 24 2
14 -1 23 -5 20 -9z m90 -4 c3 -9 0 -15 -9 -15 -8 0 -15 7 -15 15 0 8 4 15 9
15 5 0 11 -7 15 -15z m489 -15 c-7 -28 -13 -25 -13 6 0 14 4 23 9 20 5 -3 7
-15 4 -26z m519 -32 l-4 -55 116 -47 c64 -25 122 -46 130 -46 7 0 21 -9 30
-19 33 -36 13 -56 -102 -102 -59 -23 -124 -51 -145 -61 -21 -11 -44 -17 -50
-15 -10 4 91 57 108 57 3 0 22 10 43 23 20 13 58 29 85 37 77 21 63 43 -63 92
-14 6 -33 14 -42 19 -10 5 -24 9 -31 9 -7 0 -32 9 -55 20 l-42 20 0 66 c0 48
3 65 13 61 8 -2 11 -21 9 -59z m168 52 c0 -5 -4 -10 -10 -10 -5 0 -10 5 -10
10 0 6 5 10 10 10 6 0 10 -4 10 -10z m-942 -17 c2 -8 -5 -13 -17 -13 -21 0
-35 13 -24 24 10 10 36 3 41 -11z m139 -5 c-3 -8 -6 -5 -6 6 -1 11 2 17 5 13
3 -3 4 -12 1 -19z m143 -5 c0 -19 -3 -24 -10 -17 -6 6 -8 18 -4 27 9 24 14 21
14 -10z m154 11 c9 -22 8 -24 -9 -18 -8 4 -15 12 -15 20 0 19 16 18 24 -2z
m1626 9 c0 -11 -142 -105 -148 -98 -9 9 30 44 82 75 53 31 66 35 66 23z m-654
-45 c-45 -40 -59 -101 -32 -139 18 -27 20 -39 6 -39 -16 0 -50 62 -50 92 0 35
37 97 64 108 43 18 48 9 12 -22z m-2071 12 c3 -5 1 -10 -4 -10 -6 0 -11 5 -11
10 0 6 2 10 4 10 3 0 8 -4 11 -10z m525 -10 c0 -5 -4 -10 -10 -10 -5 0 -10 5
-10 10 0 6 5 10 10 10 6 0 10 -4 10 -10z m550 -18 c0 -15 -2 -15 -10 -2 -13
20 -13 33 0 25 6 -3 10 -14 10 -23z m-1112 -9 c-2 -16 -8 -27 -15 -25 -7 1
-13 -3 -13 -10 0 -6 -3 -8 -7 -5 -3 4 2 16 12 27 17 19 12 26 -17 21 -5 0 -8
4 -8 9 0 6 12 10 26 10 22 0 25 -4 22 -27z m302 15 c0 -4 -9 -8 -20 -8 -11 0
-20 4 -20 9 0 6 9 9 20 8 11 -1 20 -5 20 -9z m100 8 c0 -3 -4 -8 -10 -11 -5
-3 -10 -1 -10 4 0 6 5 11 10 11 6 0 10 -2 10 -4z m-290 -26 c8 -5 11 -10 5
-10 -5 0 -17 5 -25 10 -8 5 -10 10 -5 10 6 0 17 -5 25 -10z m548 -15 c-3 -3
-9 2 -12 12 -6 14 -5 15 5 6 7 -7 10 -15 7 -18z m31 -6 c-6 -4 -6 -15 1 -33 5
-15 6 -25 1 -22 -5 4 -12 0 -15 -6 -3 -7 -3 7 -1 32 2 25 4 50 5 55 0 6 4 3
10 -5 5 -9 5 -17 -1 -21z m-823 -35 c-8 -21 -15 -32 -15 -23 -1 22 22 86 26
73 2 -5 -3 -28 -11 -50z m1048 30 c8 -21 -12 -17 -24 6 -8 16 -8 18 4 14 8 -3
17 -12 20 -20z m177 12 c5 3 5 -6 -1 -21 -7 -19 -6 -32 5 -49 14 -21 14 -24 1
-29 -12 -5 -14 -15 -9 -38 4 -23 2 -35 -9 -43 -9 -6 -18 -20 -22 -31 -3 -11
-2 0 1 25 4 25 7 65 8 90 3 83 7 115 12 102 2 -6 9 -10 14 -6z m-286 -6 c3 -5
1 -10 -4 -10 -6 0 -11 5 -11 10 0 6 2 10 4 10 3 0 8 -4 11 -10z m345 -6 c0 -8
-5 -12 -10 -9 -6 4 -8 11 -5 16 9 14 15 11 15 -7z m-1250 -39 c-13 -16 -30
-20 -30 -7 0 4 8 18 18 30 13 17 18 18 20 6 2 -8 -2 -21 -8 -29z m151 28 c13
-17 13 -17 -6 -3 -11 8 -22 16 -24 17 -2 2 0 3 6 3 6 0 17 -8 24 -17z m99 3
c0 -2 -7 -7 -16 -10 -8 -3 -12 -2 -9 4 6 10 25 14 25 6z m374 -30 c-3 -14 -11
-26 -16 -26 -6 0 -8 -7 -5 -14 4 -10 1 -13 -9 -9 -20 8 -17 27 8 56 27 30 31
29 22 -7z m690 19 c-6 -16 -24 -21 -24 -7 0 11 11 22 21 22 5 0 6 -7 3 -15z
m-1288 -11 c-10 -27 6 -38 20 -13 l12 24 -1 -27 c-1 -14 -6 -24 -10 -21 -4 2
-5 -7 -1 -21 9 -36 -1 -32 -20 8 -14 30 -13 66 1 66 3 0 2 -7 -1 -16z m104 6
c0 -5 -10 -10 -22 -10 -19 0 -20 2 -8 10 19 13 30 13 30 0z m428 -18 c2 -7 -3
-12 -12 -12 -9 0 -16 7 -16 16 0 17 22 14 28 -4z m97 8 c3 -5 1 -10 -4 -10 -6
0 -11 5 -11 10 0 6 2 10 4 10 3 0 8 -4 11 -10z m338 -10 c-3 -11 -9 -17 -15
-14 -5 3 -4 12 3 20 16 19 18 18 12 -6z m274 -2 c-3 -8 -6 -5 -6 6 -1 11 2 17
5 13 3 -3 4 -12 1 -19z m-1051 -15 c-10 -10 -19 5 -10 18 6 11 8 11 12 0 2 -7
1 -15 -2 -18z m830 18 c-3 -5 1 -11 8 -14 9 -4 17 1 19 11 4 13 5 13 6 2 0 -8
-4 -22 -9 -30 -9 -13 -12 -12 -25 4 -18 23 -19 36 -4 36 5 0 8 -4 5 -9z m51
-28 c-3 -10 -5 -4 -5 12 0 17 2 24 5 18 2 -7 2 -21 0 -30z m-848 -6 c-7 -15
-16 -24 -20 -21 -5 3 -9 1 -9 -5 0 -5 5 -13 10 -16 15 -9 12 -25 -5 -25 -28 0
-29 31 -1 56 14 14 26 30 26 36 0 6 2 9 5 6 3 -3 0 -17 -6 -31z m181 12 c0 -5
-4 -9 -10 -9 -5 0 -10 7 -10 16 0 8 5 12 10 9 6 -3 10 -10 10 -16z m-340 -4
c11 -13 10 -14 -4 -9 -9 3 -16 10 -16 15 0 13 6 11 20 -6z m-76 -28 c-1 -9 -2
-24 -3 -32 -2 -21 -14 -19 -29 6 -10 16 -11 24 -1 35 15 18 34 13 33 -9z m123
-9 c-3 -8 -6 -5 -6 6 -1 11 2 17 5 13 3 -3 4 -12 1 -19z m280 0 c-3 -8 -6 -5
-6 6 -1 11 2 17 5 13 3 -3 4 -12 1 -19z m42 9 c8 -10 7 -14 -4 -14 -8 0 -15 6
-15 14 0 7 2 13 4 13 2 0 9 -6 15 -13z m478 -5 c-10 -10 -17 -25 -17 -33 0
-12 -2 -12 -9 0 -9 14 15 51 33 51 5 0 2 -8 -7 -18z m725 -42 c-5 -65 -22 -65
-22 0 0 33 4 50 13 50 8 0 11 -15 9 -50z m-1580 29 c2 -5 18 -11 36 -11 17 -1
32 -4 32 -8 0 -4 9 -10 20 -13 11 -3 20 -11 20 -17 0 -10 -3 -10 -14 -1 -17
14 -27 -6 -19 -38 5 -19 2 -21 -27 -18 -17 2 -36 10 -41 18 -6 10 -9 6 -10
-16 -1 -16 -1 -37 0 -46 1 -9 -3 -29 -9 -44 -10 -26 -12 -27 -27 -12 -14 14
-14 20 1 66 20 63 20 64 -3 51 -16 -8 -20 -6 -23 8 -5 24 14 72 29 72 7 0 13
5 13 10 0 13 17 13 22 -1z m2203 -25 c0 -18 -6 -30 -16 -32 -12 -2 -14 5 -11
33 5 43 27 42 27 -1z m-1192 -43 l-8 -31 -11 34 c-8 27 -8 33 3 29 8 -3 13 3
14 18 2 22 2 23 6 3 2 -12 0 -36 -4 -53z m163 47 c0 -10 -3 -18 -7 -18 -4 0
-9 8 -11 18 -3 10 0 19 6 19 7 0 12 -9 12 -19z m-811 -26 c-8 -9 -25 20 -18
31 3 5 10 2 15 -7 6 -10 7 -20 3 -24z m206 21 c13 -16 12 -17 -3 -4 -10 7 -18
15 -18 17 0 8 8 3 21 -13z m239 -30 c0 -35 -3 -44 -10 -33 -13 20 -13 80 0 80
6 0 10 -21 10 -47z m433 41 c13 -5 13 -8 -4 -25 -23 -23 -29 -24 -29 -3 0 9 5
12 12 8 8 -5 9 -2 5 9 -7 19 -6 20 16 11z m-467 -24 c0 -11 -4 -20 -8 -20 -4
0 -8 9 -8 20 0 11 4 20 8 20 4 0 8 -9 8 -20z m-1426 -11 c0 -6 -4 -7 -10 -4
-5 3 -10 11 -10 16 0 6 5 7 10 4 6 -3 10 -11 10 -16z m1610 -8 c0 -5 -7 -12
-16 -15 -14 -5 -15 -4 -4 9 14 17 20 19 20 6z m164 -33 c17 -33 21 -52 7 -30
-6 10 -10 5 -14 -17 -5 -22 -11 -29 -22 -25 -12 5 -13 9 -4 20 6 8 9 27 6 43
-5 24 -1 41 9 41 1 0 10 -14 18 -32z m128 -36 l-9 -27 -13 25 c-9 17 -10 25
-1 28 6 2 11 11 11 20 1 15 2 15 11 -1 7 -11 7 -28 1 -45z m-1309 -17 c6 -16
3 -15 -13 5 -11 14 -20 34 -20 45 0 17 2 17 13 -5 7 -14 16 -34 20 -45z m197
23 c0 -6 -6 -5 -15 2 -8 7 -15 14 -15 16 0 2 7 1 15 -2 8 -4 15 -11 15 -16z
m127 5 c2 -6 -3 -13 -12 -16 -10 -5 -15 0 -15 14 0 21 21 22 27 2z m2103 -18
c0 -19 -4 -35 -9 -35 -10 0 -22 51 -14 62 11 19 23 5 23 -27z m-2477 -20 c5
-28 4 -34 -3 -20 -8 19 -14 73 -6 64 2 -2 6 -22 9 -44z m167 24 c0 -6 -4 -7
-10 -4 -5 3 -10 11 -10 16 0 6 5 7 10 4 6 -3 10 -11 10 -16z m750 11 c0 -5 -2
-10 -4 -10 -3 0 -8 5 -11 10 -3 6 -1 10 4 10 6 0 11 -4 11 -10z m218 -18 c6
-18 -15 -14 -22 4 -4 10 -1 14 6 12 6 -2 14 -10 16 -16z m142 8 c0 -5 -2 -10
-4 -10 -3 0 -8 5 -11 10 -3 6 -1 10 4 10 6 0 11 -4 11 -10z m-303 -32 c-3 -7
-5 -2 -5 12 0 14 2 19 5 13 2 -7 2 -19 0 -25z m-818 -3 c7 16 9 14 14 -13 4
-18 12 -32 18 -32 6 0 9 6 6 13 -3 8 -1 20 4 28 6 10 9 2 9 -23 0 -30 -4 -38
-17 -38 -10 0 -29 -3 -42 -7 -21 -5 -22 -4 -12 16 7 12 16 19 22 16 5 -4 9 -1
9 4 0 16 -19 13 -36 -4 -21 -20 -27 -75 -9 -75 7 0 16 6 18 13 3 7 6 5 6 -5 1
-13 -7 -18 -24 -18 -14 0 -25 -4 -25 -9 0 -5 -3 -17 -7 -27 -4 -11 -3 -15 4
-11 13 8 4 -35 -8 -43 -14 -10 -15 -75 -1 -72 6 1 12 -4 12 -12 0 -9 -9 -14
-21 -13 -20 1 -21 5 -15 57 4 30 8 62 10 70 2 8 6 33 11 55 4 22 17 65 29 97
18 49 22 53 30 35 8 -21 8 -21 15 -2z m1161 5 c0 -5 -2 -10 -4 -10 -3 0 -8 5
-11 10 -3 6 -1 10 4 10 6 0 11 -4 11 -10z m-253 -32 c-3 -7 -5 -2 -5 12 0 14
2 19 5 13 2 -7 2 -19 0 -25z m-630 -3 c-8 -20 -27 -20 -27 1 0 8 5 12 10 9 6
-3 10 -1 10 6 0 7 3 10 6 6 4 -3 4 -13 1 -22z m858 15 c3 -5 1 -10 -4 -10 -6
0 -11 5 -11 10 0 6 2 10 4 10 3 0 8 -4 11 -10z m-1018 -52 c-3 -7 -5 -2 -5 12
0 14 2 19 5 13 2 -7 2 -19 0 -25z m91 12 c-15 -24 -24 -25 -32 -4 -4 12 -2 15
9 10 8 -3 15 -1 15 4 0 6 5 10 10 10 6 0 5 -8 -2 -20z m1513 -28 c-6 -11 -27
-32 -48 -48 -21 -16 -70 -57 -109 -91 -64 -55 -84 -65 -84 -43 0 3 52 48 115
99 81 66 115 99 115 115 1 19 2 19 11 4 6 -12 7 -24 0 -36z m-1822 -2 c0 -10
-3 -8 -9 5 -12 27 -12 43 0 25 5 -8 9 -22 9 -30z m201 8 c0 -3 -8 -5 -17 -3
-25 4 -38 -6 -22 -16 7 -4 11 -11 7 -14 -3 -3 -13 1 -22 10 -9 9 -21 13 -27 9
-8 -5 -9 -3 -5 5 5 7 15 10 23 7 9 -4 17 1 20 13 4 17 8 18 24 8 10 -6 19 -15
19 -19z m2220 -11 c0 -15 -27 -45 -87 -97 -47 -41 -96 -86 -109 -99 -15 -16
-28 -22 -41 -17 -16 7 -15 10 13 34 17 15 48 41 69 57 35 27 113 91 124 101 2
2 5 14 7 27 3 30 3 29 14 22 6 -3 10 -16 10 -28z m-2171 -34 c1 -18 -38 -16
-45 2 -4 8 -10 12 -15 9 -5 -3 -9 0 -9 5 0 6 7 11 15 11 8 0 15 -4 15 -10 0
-21 20 -9 21 13 0 21 1 21 9 2 5 -11 9 -26 9 -32z m301 32 c0 -8 -7 -15 -15
-15 -13 0 -14 3 -3 15 16 18 18 18 18 0z m348 -7 c-2 -6 -10 -14 -16 -16 -7
-2 -10 2 -6 12 7 18 28 22 22 4z m322 8 c0 -3 -4 -8 -10 -11 -5 -3 -10 -1 -10
4 0 6 5 11 10 11 6 0 10 -2 10 -4z m80 -27 c0 -4 -7 -9 -15 -13 -8 -3 -15 -1
-15 3 0 5 -3 17 -6 26 -6 15 -4 15 15 4 11 -8 21 -17 21 -20z m-981 5 c2 -2
-3 -10 -11 -18 -14 -13 -17 -12 -27 10 -10 24 -10 25 11 18 13 -3 25 -8 27
-10z m761 6 c0 -5 -4 -10 -10 -10 -5 0 -10 5 -10 10 0 6 5 10 10 10 6 0 10 -4
10 -10z m-590 -20 c0 -5 -7 -7 -15 -4 -8 4 -12 10 -9 15 6 11 24 2 24 -11z
m770 10 c0 -5 -4 -10 -10 -10 -5 0 -10 5 -10 10 0 6 5 10 10 10 6 0 10 -4 10
-10z m-1130 -35 c0 -7 9 -15 20 -18 11 -3 20 -13 20 -23 0 -16 -1 -16 -15 2
-8 10 -15 14 -15 7 0 -7 -7 -10 -15 -7 -8 4 -12 11 -8 17 3 6 1 7 -5 3 -7 -4
-12 -14 -12 -22 0 -8 -4 -14 -10 -14 -5 0 -10 9 -10 19 0 11 -6 21 -12 24 -8
2 -9 8 -4 13 5 5 11 4 13 -3 8 -23 23 -14 23 13 0 22 2 25 15 14 8 -7 15 -18
15 -25z m291 10 c5 4 9 -1 9 -10 0 -26 -19 -55 -37 -55 -13 0 -13 3 -3 15 9
10 9 15 1 15 -6 0 -11 5 -11 11 0 6 7 9 15 5 11 -4 14 0 12 17 -2 12 -2 16 0
9 3 -7 9 -10 14 -7z m-221 -5 c0 -19 -11 -26 -23 -14 -8 8 3 34 14 34 5 0 9
-9 9 -20z m800 -1 c0 -14 -17 -10 -23 5 -4 10 -1 13 9 9 7 -3 14 -9 14 -14z
m84 -3 c-6 -16 -24 -23 -24 -8 0 10 22 33 27 28 2 -2 1 -11 -3 -20z m-593 -13
c11 3 19 0 19 -8 0 -8 -9 -11 -25 -7 -18 3 -25 10 -24 26 1 18 2 18 6 3 3 -13
11 -17 24 -14z m279 18 c0 -6 -4 -13 -10 -16 -5 -3 -10 1 -10 9 0 9 5 16 10
16 6 0 10 -4 10 -9z m-400 -22 c0 -6 -4 -7 -10 -4 -5 3 -10 11 -10 16 0 6 5 7
10 4 6 -3 10 -11 10 -16z m532 -1 c-7 -7 -12 -8 -12 -2 0 6 3 14 7 17 3 4 9 5
12 2 2 -3 -1 -11 -7 -17z m-582 8 c0 -3 -4 -8 -10 -11 -5 -3 -10 -1 -10 4 0 6
5 11 10 11 6 0 10 -2 10 -4z m-33 -38 c-3 -8 -6 -5 -6 6 -1 11 2 17 5 13 3 -3
4 -12 1 -19z m363 13 c0 -5 -7 -11 -15 -15 -9 -3 -15 0 -15 9 0 8 7 15 15 15
8 0 15 -4 15 -9z m-326 -55 c-3 -8 -12 -12 -21 -9 -8 3 -19 0 -23 -8 -5 -7
-12 -10 -16 -7 -10 11 19 35 35 30 10 -3 12 0 8 13 -4 9 -4 22 0 28 8 14 24
-29 17 -47z m361 44 c3 -5 -1 -10 -9 -10 -9 0 -16 5 -16 10 0 6 4 10 9 10 6 0
13 -4 16 -10z m-614 -17 c12 -14 12 -16 -1 -11 -12 4 -16 -1 -15 -20 0 -14 -6
-27 -13 -29 -9 -4 -10 2 -1 24 6 15 10 29 10 31 -2 7 0 22 3 22 2 0 10 -8 17
-17z m454 7 c3 -5 1 -10 -4 -10 -6 0 -11 5 -11 10 0 6 2 10 4 10 3 0 8 -4 11
-10z m-275 -4 c0 -3 -4 -8 -10 -11 -5 -3 -10 -1 -10 4 0 6 5 11 10 11 6 0 10
-2 10 -4z m-106 -31 c32 -27 24 -34 -11 -10 -24 17 -36 7 -27 -22 5 -15 4 -15
-5 -3 -6 8 -11 11 -11 5 0 -5 -5 -2 -11 8 -9 14 -7 22 8 32 24 19 23 19 57
-10z m36 15 c0 -5 -4 -10 -9 -10 -6 0 -13 5 -16 10 -3 6 1 10 9 10 9 0 16 -4
16 -10z m60 -22 c0 -4 -9 -6 -20 -5 -12 1 -20 8 -20 19 0 16 3 16 20 6 11 -7
20 -16 20 -20z m145 22 c3 -5 -1 -20 -9 -32 -16 -22 -16 -22 -16 10 0 31 12
42 25 22z m220 0 c5 8 12 -1 21 -26 7 -21 10 -42 6 -46 -4 -4 -8 2 -9 14 -2
23 -23 51 -23 30 0 -7 -7 -5 -18 6 -11 11 -14 20 -8 24 6 4 13 2 17 -4 4 -7 9
-6 14 2z m-633 -77 c-9 -26 -18 -3 -13 34 l5 38 6 -30 c3 -16 4 -36 2 -42z
m788 19 c0 -10 -4 -10 -16 2 -8 9 -12 21 -8 27 7 13 24 -7 24 -29z m-180 -31
c0 -9 7 -27 16 -39 13 -19 13 -22 1 -22 -9 0 -17 14 -21 35 -4 20 -11 33 -16
30 -4 -3 -15 2 -24 10 -13 13 -13 19 -3 30 10 12 15 11 30 -7 9 -11 17 -28 17
-37z m1205 49 c3 -5 1 -10 -4 -10 -6 0 -11 5 -11 10 0 6 2 10 4 10 3 0 8 -4
11 -10z m-1573 -12 c-9 -9 -15 -9 -24 0 -9 9 -7 12 12 12 19 0 21 -3 12 -12z
m1618 -18 c0 -18 -5 -30 -13 -30 -9 0 -14 12 -15 30 0 20 4 30 14 30 9 0 14
-11 14 -30z m-1695 10 c3 -5 1 -10 -4 -10 -6 0 -11 5 -11 10 0 6 2 10 4 10 3
0 8 -4 11 -10z m202 -8 c-18 -20 -22 -42 -9 -42 12 0 44 -78 37 -90 -3 -5 -1
-10 4 -10 6 0 11 -5 11 -11 0 -8 -5 -7 -15 1 -9 7 -13 20 -10 27 3 8 -2 24
-10 36 -8 12 -15 17 -15 11 0 -5 5 -15 12 -22 17 -17 0 -26 -44 -23 -24 1 -23
32 1 38 36 9 34 40 -1 34 -11 -2 -10 17 3 40 5 11 14 17 20 14 5 -4 9 -1 9 4
0 6 5 11 12 11 6 0 4 -7 -5 -18z m93 -8 c0 -8 5 -14 11 -14 6 0 9 7 6 15 -4 8
-1 17 5 21 7 4 8 3 4 -4 -4 -7 -2 -12 3 -12 6 0 11 6 12 13 0 9 2 9 6 -1 2 -6
9 -10 14 -6 5 3 9 -5 8 -18 0 -13 -3 -17 -6 -10 -6 16 -23 16 -23 -1 0 -8 -9
-13 -22 -11 -13 1 -26 3 -30 3 -5 1 -8 13 -8 27 0 14 4 23 10 19 6 -3 10 -13
10 -21z m420 5 c0 -5 -4 -9 -10 -9 -5 0 -10 7 -10 16 0 8 5 12 10 9 6 -3 10
-10 10 -16z m206 -4 c4 -14 4 -29 0 -32 -3 -4 -6 1 -6 10 0 10 -4 17 -10 17
-5 0 -10 7 -10 15 0 25 19 17 26 -10z m-976 -15 c-8 -5 -10 -17 -6 -34 4 -15
2 -26 -4 -26 -5 0 -10 4 -10 9 0 5 -3 22 -6 39 -5 24 -2 31 12 34 22 4 32 -11
14 -22z m647 -11 c-8 -12 -13 -14 -22 -5 -9 7 -9 15 -2 27 8 12 13 14 22 5 9
-7 9 -15 2 -27z m1693 0 c0 -16 -4 -29 -10 -29 -5 0 -10 16 -10 36 0 21 4 33
10 29 6 -3 10 -19 10 -36z m-3320 14 c0 -10 12 -36 25 -58 14 -22 25 -46 25
-52 0 -7 14 -35 30 -61 29 -47 41 -87 21 -67 -12 13 -96 176 -103 201 -3 10
-9 27 -13 37 -4 10 -3 17 4 17 6 0 11 -8 11 -17z m1094 -8 c14 -22 15 -25 1
-25 -8 0 -15 8 -16 18 0 10 -3 12 -6 5 -2 -7 -14 -13 -24 -13 -11 0 -18 -4
-15 -9 3 -5 -3 -11 -13 -14 -12 -3 -22 1 -25 9 -3 8 1 14 9 14 8 0 15 5 15 11
0 6 9 9 19 6 12 -3 22 1 25 9 7 19 11 18 30 -11z m181 16 c3 -5 1 -12 -5 -16
-5 -3 -10 1 -10 9 0 18 6 21 15 7z m595 -22 c0 -17 4 -28 10 -24 15 10 12 2
-15 -35 -25 -33 -19 -55 10 -44 7 3 15 -2 18 -11 5 -12 1 -14 -23 -10 -25 4
-30 2 -30 -15 0 -22 -8 -25 -30 -10 -13 9 -13 12 1 20 11 7 16 20 13 42 -1 18
-3 37 -3 43 -1 5 -6 4 -13 -3 -15 -15 -28 -16 -28 -2 0 6 7 10 15 10 8 0 15 5
15 11 0 5 4 8 8 5 4 -2 14 0 22 5 13 8 13 10 1 18 -16 10 -6 31 15 31 9 0 14
-11 14 -31z m-751 -43 c-9 -8 -10 -7 -5 7 3 10 7 28 7 40 2 16 3 14 6 -7 3
-16 -1 -34 -8 -40z m560 30 c-13 -11 -49 -16 -49 -6 0 6 5 8 10 5 6 -3 10 3
10 15 0 20 1 20 16 5 9 -9 15 -17 13 -19z m428 12 c-3 -8 -6 -5 -6 6 -1 11 2
17 5 13 3 -3 4 -12 1 -19z m-2021 1 c3 -6 -1 -18 -10 -27 -15 -15 -16 -14 -16
11 0 27 13 36 26 16z m1456 -7 c-7 -2 -12 -11 -12 -19 0 -9 -3 -14 -6 -10 -10
10 7 48 19 40 8 -5 8 -8 -1 -11z m1105 12 c-3 -3 -12 -4 -19 -1 -8 3 -5 6 6 6
11 1 17 -2 13 -5z m-1477 -39 c-15 -28 -30 -24 -30 8 0 16 3 18 9 9 6 -11 10
-10 15 4 3 9 9 14 13 10 3 -3 0 -17 -7 -31z m140 14 c0 -14 -17 -10 -23 5 -4
10 -1 13 9 9 7 -3 14 -9 14 -14z m135 11 c-3 -5 -3 -15 1 -22 4 -7 9 -26 10
-43 2 -16 0 -24 -3 -17 -2 6 -9 9 -15 6 -6 -4 -8 2 -3 17 l7 24 -21 -24 c-11
-13 -21 -19 -21 -13 0 5 -9 8 -20 5 -20 -5 -37 -44 -26 -61 3 -6 -1 -13 -10
-16 -21 -8 -33 2 -15 13 10 7 10 10 1 16 -7 4 -16 2 -21 -6 -6 -11 -9 -11 -13
1 -13 44 -13 60 0 60 8 0 14 7 14 16 0 8 5 12 10 9 8 -5 7 -11 0 -20 -14 -17
-5 -35 17 -35 12 0 14 7 8 36 -5 30 -4 36 9 31 8 -3 16 -1 18 5 3 8 10 8 25
-1 23 -12 40 0 28 19 -3 6 1 10 10 10 9 0 13 -4 10 -10z m167 -38 c-4 -11 -6
-11 -13 0 -5 7 -9 9 -9 3 0 -14 -20 17 -20 33 0 9 7 8 24 -5 13 -10 21 -24 18
-31z m155 16 c-3 -7 -5 -2 -5 12 0 14 2 19 5 13 2 -7 2 -19 0 -25z m210 10
c-3 -8 -6 -5 -6 6 -1 11 2 17 5 13 3 -3 4 -12 1 -19z m-1127 2 c0 -5 -2 -10
-4 -10 -3 0 -8 5 -11 10 -3 6 -1 10 4 10 6 0 11 -4 11 -10z m890 -26 c0 -35
-15 -30 -16 6 -1 16 3 27 7 24 5 -3 9 -16 9 -30z m186 9 c-10 -10 -19 5 -10
18 6 11 8 11 12 0 2 -7 1 -15 -2 -18z m-976 7 c0 -5 -2 -10 -4 -10 -3 0 -8 5
-11 10 -3 6 -1 10 4 10 6 0 11 -4 11 -10z m144 -25 c-4 -8 -10 -13 -15 -10 -4
3 -6 12 -3 20 4 8 10 13 15 10 4 -3 6 -12 3 -20z m851 4 c-6 -18 -4 -20 14
-14 26 8 27 1 2 -24 -18 -18 -19 -18 -31 5 -11 19 -11 26 0 39 17 21 23 19 15
-6z m-45 -5 c0 -8 -5 -12 -10 -9 -6 4 -8 11 -5 16 9 14 15 11 15 -7z m-890 -3
c0 -5 -7 -12 -16 -15 -24 -9 -28 -7 -14 9 14 17 30 20 30 6z m637 -13 c-3 -8
-6 -5 -6 6 -1 11 2 17 5 13 3 -3 4 -12 1 -19z m-582 2 c8 -13 -5 -13 -25 0
-13 8 -13 10 2 10 9 0 20 -4 23 -10z m42 -12 c-3 -8 -6 -5 -6 6 -1 11 2 17 5
13 3 -3 4 -12 1 -19z m1628 -18 c4 -23 4 -67 0 -98 -8 -72 -51 -129 -105 -138
l-35 -6 32 23 c18 13 33 30 33 37 0 7 5 10 11 6 7 -4 10 -1 7 7 -3 8 3 25 13
38 15 18 19 41 19 97 0 80 14 99 25 34z m-1561 14 c8 -22 8 -24 -8 -24 -15 0
-28 24 -19 34 11 10 21 7 27 -10z m438 -19 c-5 -27 12 -35 22 -9 3 9 12 14 19
11 47 -19 47 -19 41 -3 -3 9 -2 16 4 16 5 0 12 -13 14 -29 2 -17 1 -28 -4 -25
-4 3 -8 0 -8 -7 0 -8 -4 -8 -15 1 -12 10 -16 9 -21 -4 -4 -10 -18 -16 -36 -16
-17 0 -27 4 -23 10 3 6 -1 10 -9 10 -19 0 -19 -1 -5 39 13 37 28 42 21 6z
m-231 -12 c-12 -20 -14 -14 -5 12 4 9 9 14 11 11 3 -2 0 -13 -6 -23z m142 8
c-6 -3 -15 -19 -21 -36 l-10 -30 -1 31 c-1 32 16 57 32 47 6 -3 6 -8 0 -12z
m228 -4 c-10 -9 -11 -8 -5 6 3 10 9 15 12 12 3 -3 0 -11 -7 -18z m26 -9 c-3
-7 -5 -2 -5 12 0 14 2 19 5 13 2 -7 2 -19 0 -25z m33 22 c0 -5 -5 -10 -11 -10
-5 0 -7 5 -4 10 3 6 8 10 11 10 2 0 4 -4 4 -10z m-570 -9 c0 -6 -4 -13 -10
-16 -5 -3 -10 1 -10 9 0 9 5 16 10 16 6 0 10 -4 10 -9z m174 -6 c-4 -8 -11
-15 -16 -15 -6 0 -5 6 2 15 7 8 14 15 16 15 2 0 1 -7 -2 -15z m313 -7 c-3 -8
-6 -5 -6 6 -1 11 2 17 5 13 3 -3 4 -12 1 -19z m-169 -2 c-7 -8 -15 -12 -17
-11 -5 6 10 25 20 25 5 0 4 -6 -3 -14z m892 -40 c0 -44 5 -60 26 -85 l26 -31
-24 9 c-12 4 -29 19 -35 32 -15 29 -17 129 -3 129 6 0 10 -24 10 -54z m-1055
5 c-3 -6 -11 -8 -17 -5 -6 4 -5 9 3 15 16 10 23 4 14 -10z m65 7 c0 -11 -38
-10 -44 1 -3 5 5 8 19 7 14 0 25 -4 25 -8z m80 -8 c0 -5 -4 -10 -10 -10 -5 0
-10 5 -10 10 0 6 5 10 10 10 6 0 10 -4 10 -10z m1786 -25 c10 -41 -1 -137 -21
-178 -19 -40 -77 -87 -107 -87 -27 0 -21 16 11 30 16 6 42 25 57 41 28 29 29
34 29 125 0 68 3 94 12 94 7 0 15 -11 19 -25z m-2010 -12 c-7 -7 -26 7 -26 19
0 6 6 6 15 -2 9 -7 13 -15 11 -17z m275 0 c10 -26 12 -27 19 -8 7 16 9 17 9 3
1 -9 6 -20 13 -24 8 -5 9 -2 5 9 -3 9 -2 19 3 22 6 4 10 -3 10 -14 0 -17 5
-20 30 -14 26 5 30 3 30 -17 0 -22 -1 -23 -20 -5 -17 15 -20 16 -20 2 0 -10
-6 -13 -20 -10 -23 6 -26 -6 -7 -26 10 -11 8 -11 -11 -2 -13 7 -27 24 -33 38
-5 14 -18 27 -29 30 -20 5 -26 23 -13 36 13 13 24 7 34 -20z m289 7 c0 -5 -2
-10 -4 -10 -3 0 -8 5 -11 10 -3 6 -1 10 4 10 6 0 11 -4 11 -10z m30 1 c0 -6
-4 -13 -10 -16 -5 -3 -10 1 -10 9 0 9 5 16 10 16 6 0 10 -4 10 -9z m-495 -19
c-3 -3 -11 0 -18 7 -9 10 -8 11 6 5 10 -3 15 -9 12 -12z m375 8 c0 -5 -4 -10
-9 -10 -6 0 -13 5 -16 10 -3 6 1 10 9 10 9 0 16 -4 16 -10z m167 -42 c1 -62
-4 -73 -23 -57 -11 9 -18 9 -26 1 -15 -15 -34 5 -43 46 -3 18 -11 32 -16 32
-6 0 -7 5 -3 11 4 8 9 7 15 -2 5 -8 9 -10 9 -5 0 5 11 -1 26 -14 21 -21 27
-22 34 -10 5 8 10 23 10 33 0 9 4 17 8 17 5 0 9 -24 9 -52z m-127 28 c0 -3 -4
-8 -10 -11 -5 -3 -10 -1 -10 4 0 6 5 11 10 11 6 0 10 -2 10 -4z m1212 -42 c-3
-46 25 -99 63 -116 32 -15 32 -27 0 -20 -56 10 -104 101 -87 165 9 33 27 11
24 -29z m-1206 -9 c0 -23 -4 -35 -13 -35 -10 0 -11 8 -7 28 6 26 13 42 17 42
1 0 2 -16 3 -35z m294 27 c0 -4 -6 -14 -12 -22 -11 -12 -10 -12 4 -2 9 7 28
15 42 18 21 3 24 1 19 -12 -4 -12 -3 -15 5 -10 8 5 12 -1 13 -16 0 -13 2 -41
4 -63 5 -56 -4 -87 -24 -83 -11 2 -15 11 -13 28 3 20 2 22 -11 12 -12 -10 -16
-9 -21 4 -8 21 4 41 14 24 10 -15 30 -4 30 16 0 9 -7 14 -17 12 -11 -2 -22 6
-28 20 -5 12 -14 22 -19 22 -18 0 -34 33 -22 46 12 15 36 18 36 6z m-2002 -33
c-3 -8 -7 -3 -11 10 -4 17 -3 21 5 13 5 -5 8 -16 6 -23z m3524 -1 c-7 -7 -12
-8 -12 -2 0 14 12 26 19 19 2 -3 -1 -11 -7 -17z m-1902 2 c0 -5 7 -10 15 -10
8 0 15 -4 15 -10 0 -5 -4 -10 -10 -10 -5 0 -10 -4 -10 -10 0 -5 7 -7 16 -3 9
3 20 0 24 -7 7 -11 11 -11 25 0 15 13 16 10 9 -25 -7 -37 -6 -38 19 -31 24 6
24 5 14 -19 -12 -25 -27 -33 -27 -15 0 6 -6 9 -12 8 -7 -2 -14 8 -16 21 -2 13
-11 31 -19 39 -13 13 -16 13 -24 1 -5 -8 -9 -22 -9 -31 0 -20 -25 -24 -36 -6
-4 6 2 19 14 29 20 16 21 19 7 51 -8 18 -14 26 -15 16 0 -18 -32 -18 -38 0 -2
7 3 10 12 6 9 -3 16 -1 16 5 0 6 7 11 15 11 8 0 15 -4 15 -10z m2230 -41 c0
-10 -4 -19 -9 -19 -12 0 -23 29 -15 41 8 14 24 0 24 -22z m-2405 11 c3 -5 1
-10 -4 -10 -6 0 -11 5 -11 10 0 6 2 10 4 10 3 0 8 -4 11 -10z m-1405 -35 c0
-5 -5 -3 -10 5 -5 8 -10 20 -10 25 0 6 5 3 10 -5 5 -8 10 -19 10 -25z m1720 4
c0 -5 -4 -8 -9 -5 -5 4 -12 0 -14 -6 -3 -8 -6 -6 -6 5 -1 9 6 17 14 17 8 0 15
-5 15 -11z m108 -17 c6 -18 -15 -14 -22 4 -4 10 -1 14 6 12 6 -2 14 -10 16
-16z m-1767 -75 c22 -46 18 -64 -5 -20 -8 16 -22 35 -30 42 -9 8 -16 20 -16
28 0 25 28 -4 51 -50z m1744 26 c7 -30 2 -38 -20 -29 -12 4 -14 12 -10 27 6
17 4 21 -8 16 -11 -4 -14 -2 -11 7 8 22 42 7 49 -21z m145 -6 c0 -4 -6 -2 -14
5 -8 7 -12 17 -9 22 5 8 23 -12 23 -27z m614 7 c3 -9 6 -51 6 -95 0 -57 -4
-79 -12 -79 -10 0 -13 26 -14 95 -1 89 6 116 20 79z m-940 -17 c4 4 9 -3 13
-15 3 -12 12 -22 20 -22 8 0 11 -4 8 -10 -11 -17 -32 -11 -38 11 -4 16 -11 19
-26 14 -15 -4 -21 -2 -21 8 0 20 11 28 25 17 7 -5 15 -7 19 -3z m818 -19 c8
-22 -7 -121 -18 -125 -12 -4 -18 88 -8 120 6 20 20 22 26 5z m730 -30 c-15
-15 -26 -4 -18 18 5 13 9 15 18 6 9 -9 9 -15 0 -24z m-1557 -8 c0 -33 -9 -39
-19 -14 -4 9 -1 23 5 30 15 18 15 19 14 -16z m666 17 c-1 -4 -1 -32 -1 -62 0
-30 -4 -55 -10 -55 -6 0 -10 29 -10 66 0 42 4 64 11 62 6 -2 10 -7 10 -11z
m877 -117 c2 -48 -1 -87 -8 -94 -7 -7 -10 -1 -10 20 0 16 -3 60 -7 98 -5 57
-4 68 8 64 10 -3 15 -27 17 -88z m-1444 16 c-3 -9 -10 -13 -15 -10 -5 3 -9 -9
-9 -27 l0 -32 -30 41 c-34 48 -36 52 -15 52 8 0 15 -7 15 -16 0 -14 3 -14 15
-4 9 7 14 19 11 26 -8 21 7 25 21 5 7 -11 10 -26 7 -35z m-1554 -9 c0 -6 -9
-2 -20 8 -11 10 -20 23 -20 28 0 6 9 2 20 -8 11 -10 20 -23 20 -28z m2725 27
c13 -5 14 -9 4 -15 -8 -4 -12 -25 -11 -51 1 -24 -2 -49 -7 -56 -10 -16 -26
102 -16 118 7 12 8 12 30 4z m175 -3 c0 -5 -7 -12 -15 -15 -11 -4 -15 -17 -13
-46 1 -22 -3 -45 -10 -52 -9 -9 -12 3 -12 55 0 65 1 67 25 67 14 0 25 -4 25
-9z m-2839 -104 c12 -22 12 -22 -10 -3 -11 11 -21 23 -21 28 0 14 19 -1 31
-25z m2347 2 c2 -21 -11 -37 -80 -94 -46 -39 -98 -85 -116 -104 -25 -24 -37
-30 -45 -22 -16 16 11 60 48 76 16 7 46 29 64 49 19 20 40 36 46 36 22 0 58
48 52 70 -4 16 -1 20 11 18 10 -2 18 -14 20 -29z m-188 -33 c0 -2 -9 -6 -20
-9 -11 -3 -20 -1 -20 4 0 5 9 9 20 9 11 0 20 -2 20 -4z m780 -102 c0 -68 -11
-102 -39 -119 -43 -26 -59 -8 -22 24 28 24 32 33 36 96 2 39 4 71 4 73 1 2 6
0 11 -3 6 -3 10 -35 10 -71z m410 56 c0 -5 -4 -10 -10 -10 -5 0 -10 5 -10 10
0 6 5 10 10 10 6 0 10 -4 10 -10z m-2950 -30 c0 -5 -5 -10 -11 -10 -5 0 -7 5
-4 10 3 6 8 10 11 10 2 0 4 -4 4 -10z m2402 -30 c-1 -13 5 -34 13 -47 18 -28
1 -32 -27 -6 -18 16 -25 63 -11 77 13 13 28 -1 25 -24z m-2577 -86 c31 -31 54
-58 50 -62 -5 -6 -115 102 -115 113 0 11 12 2 65 -51z m2525 39 c0 -11 -114
-113 -127 -113 -8 0 -7 11 4 39 12 30 25 43 61 59 52 23 62 26 62 15z m710 -3
c0 -5 -4 -10 -10 -10 -5 0 -10 5 -10 10 0 6 5 10 10 10 6 0 10 -4 10 -10z
m-1110 -51 c0 -20 -4 -29 -12 -27 -7 3 -12 16 -11 31 1 38 2 39 13 32 6 -3 10
-20 10 -36z m-2040 21 c0 -5 -2 -10 -4 -10 -3 0 -8 5 -11 10 -3 6 -1 10 4 10
6 0 11 -4 11 -10z m1020 -30 c0 -5 -4 -10 -10 -10 -5 0 -10 5 -10 10 0 6 5 10
10 10 6 0 10 -4 10 -10z m-972 -105 c-7 -8 -58 42 -58 57 0 6 14 -4 32 -21 17
-17 29 -33 26 -36z m1273 -16 c-10 -23 -10 -22 -8 8 0 18 5 29 9 25 5 -5 4
-19 -1 -33z m-71 -29 c-7 -17 -15 -28 -18 -26 -2 3 -1 22 2 42 5 26 10 34 18
26 8 -8 7 -20 -2 -42z m1311 -27 c-10 -17 -10 -16 -11 3 0 23 13 41 18 25 2
-6 -1 -18 -7 -28z m-1951 -13 c0 -5 -4 -10 -10 -10 -5 0 -10 5 -10 10 0 6 5
10 10 10 6 0 10 -4 10 -10z m1797 -45 c-4 -8 -14 -15 -23 -15 -16 0 -16 2 2
19 21 21 29 19 21 -4z m103 16 c0 -5 -9 -7 -20 -4 -11 3 -20 7 -20 9 0 2 9 4
20 4 11 0 20 -4 20 -9z m-2235 -31 c3 -5 1 -10 -4 -10 -6 0 -11 5 -11 10 0 6
2 10 4 10 3 0 8 -4 11 -10z m2035 0 c0 -5 -4 -10 -10 -10 -5 0 -10 5 -10 10 0
6 5 10 10 10 6 0 10 -4 10 -10z m-70 -40 c-8 -5 -19 -10 -25 -10 -5 0 -3 5 5
10 8 5 20 10 25 10 6 0 3 -5 -5 -10z m0 -30 c0 -5 -4 -10 -10 -10 -5 0 -10 5
-10 10 0 6 5 10 10 10 6 0 10 -4 10 -10z m-130 -10 c0 -5 -2 -10 -4 -10 -3 0
-8 5 -11 10 -3 6 -1 10 4 10 6 0 11 -4 11 -10z m-53 -6 c-3 -3 -12 -4 -19 -1
-8 3 -5 6 6 6 11 1 17 -2 13 -5z m-354 -56 c-4 -7 -8 -16 -8 -20 0 -5 -4 -8
-10 -8 -9 0 -10 5 -6 30 0 6 8 10 17 10 10 0 12 -4 7 -12z m-3 -78 c0 -5 -8
-10 -17 -10 -15 0 -16 2 -3 10 19 12 20 12 20 0z"/>
<path d="M2475 4435 c-3 -8 -7 -21 -9 -29 -7 -22 26 -12 35 10 11 29 10 34 -6
34 -9 0 -18 -7 -20 -15z"/>
<path d="M2388 1509 c-21 -12 -23 -42 -5 -58 20 -16 48 17 40 47 -6 25 -10 26
-35 11z"/>
<path d="M2321 1144 c0 -11 3 -14 6 -6 3 7 2 16 -1 19 -3 4 -6 -2 -5 -13z"/>
<path d="M2300 1086 c0 -14 11 -37 25 -52 14 -15 25 -37 25 -50 0 -30 18 -40
34 -19 19 27 8 66 -18 63 -15 -2 -22 3 -24 20 -2 13 -10 26 -18 29 -23 8 -16
25 7 18 15 -5 19 -4 15 4 -4 6 -16 11 -27 11 -14 0 -19 -7 -19 -24z"/>
<path d="M2390 1075 c0 -8 7 -15 15 -15 10 0 15 -10 15 -27 l1 -28 15 28 c9
16 14 30 12 31 -2 1 -15 7 -30 14 -23 10 -28 9 -28 -3z"/>
<path d="M2411 973 c0 -4 4 -17 8 -27 6 -15 9 -16 13 -5 3 8 -1 20 -8 27 -8 7
-14 9 -13 5z"/>
<path d="M2353 915 c-3 -9 -3 -19 1 -22 3 -4 6 1 6 10 0 26 19 20 26 -8 3 -14
10 -25 15 -25 12 0 11 17 -2 25 -6 4 -8 13 -5 21 4 9 -2 14 -15 14 -11 0 -22
-7 -26 -15z"/>
<path d="M2302 867 c-25 -27 -28 -37 -9 -37 17 0 59 44 50 53 -11 11 -18 8
-41 -16z"/>
<path d="M2495 840 c-3 -6 1 -13 10 -16 19 -8 30 0 20 15 -8 14 -22 14 -30 1z"/>
<path d="M2380 814 c-8 -19 -8 -30 0 -38 5 -5 10 -18 10 -28 0 -10 5 -18 10
-18 18 0 23 30 10 55 -7 13 -10 28 -6 33 3 6 2 13 -4 17 -5 3 -15 -6 -20 -21z"/>
<path d="M2480 765 c-11 -13 -8 -15 15 -15 23 0 26 2 15 15 -7 8 -14 15 -15
15 -1 0 -8 -7 -15 -15z"/>
<path d="M2330 730 c0 -5 5 -10 10 -10 6 0 10 5 10 10 0 6 -4 10 -10 10 -5 0
-10 -4 -10 -10z"/>
<path d="M2440 717 c0 -19 16 -31 24 -18 3 5 -1 14 -9 21 -12 10 -15 10 -15
-3z"/>
<path d="M2406 704 c-8 -20 1 -34 20 -34 18 0 18 24 0 39 -11 9 -15 8 -20 -5z"/>
<path d="M1510 2370 c0 -5 5 -10 11 -10 5 0 7 -6 3 -12 -5 -9 -3 -9 9 1 9 7
14 17 11 22 -7 12 -34 11 -34 -1z"/>
<path d="M1731 2404 c0 -11 3 -14 6 -6 3 7 2 16 -1 19 -3 4 -6 -2 -5 -13z"/>
<path d="M1840 2408 c0 -7 5 -20 10 -28 8 -12 10 -9 10 13 0 15 -4 27 -10 27
-5 0 -10 -6 -10 -12z"/>
<path d="M1205 2060 c-3 -5 -1 -10 4 -10 6 0 11 5 11 10 0 6 -2 10 -4 10 -3 0
-8 -4 -11 -10z"/>
<path d="M1265 2050 c3 -5 11 -10 16 -10 6 0 7 5 4 10 -3 6 -11 10 -16 10 -6
0 -7 -4 -4 -10z"/>
<path d="M1211 1933 c-7 -8 -10 -17 -7 -20 9 -9 29 13 25 25 -2 6 -10 3 -18
-5z"/>
<path d="M2125 1571 c-3 -5 -1 -12 5 -16 5 -3 10 1 10 9 0 18 -6 21 -15 7z"/>
<path d="M2450 1311 c0 -14 5 -19 15 -14 17 6 15 25 -3 31 -7 2 -12 -5 -12
-17z"/>
</g>
</svg>
